<svg width="447" height="391" viewBox="0 0 447 391" fill="none" xmlns="http://www.w3.org/2000/svg">
<path d="M52.1073 210.856C52.4484 198.249 52.3304 185.625 51.7538 173.036C50.4696 147.074 47.7415 121.306 43.5961 95.9827C41.3187 81.7173 38.5179 67.6986 35.5948 53.6997C35.5132 53.2752 35.0441 53.3937 35.1257 53.838C44.1535 103.199 51.5566 154.14 51.0468 205.456C50.904 219.82 49.7619 233.928 48.8238 248.193C48.8238 248.578 49.2317 248.727 49.2929 248.332C51.1555 236.12 51.7606 223.325 52.1073 210.856Z" fill="#EBEBEB"/>
<path d="M35.1256 53.838C35.1256 53.838 21.4479 104.246 24.5138 116.093C27.5798 127.939 33.8884 130.467 33.8884 130.467C33.8884 130.467 25.5199 147.773 31.3663 164.092C37.2126 180.41 50.2037 179.591 51.0807 198.042C51.0671 198.042 51.7945 120.9 35.1256 53.838Z" fill="#EBEBEB"/>
<path d="M49.5783 166.184C49.6014 166.099 49.6014 166.004 49.5783 165.918C47.6612 131.641 43.46 97.4734 36.3152 64.5198C36.3152 64.4211 36.1861 64.4507 36.2065 64.5198C38.9257 79.269 41.3186 94.0938 43.3852 108.994C41.5484 106.469 39.3045 104.653 36.8591 103.713C36.8501 103.713 36.8414 103.718 36.8351 103.727C36.8287 103.736 36.8251 103.749 36.8251 103.762C36.8251 103.775 36.8287 103.788 36.8351 103.797C36.8414 103.806 36.8501 103.811 36.8591 103.811C39.388 105.401 41.8081 107.237 43.596 110.357C43.9971 113.318 44.3914 116.201 44.7584 119.123C41.7061 114.187 37.4641 111.699 33.2017 109.36C33.1473 109.36 33.1134 109.468 33.2017 109.498C37.6137 112.114 42.0392 115.471 45.01 120.999C46.0523 129.371 46.9588 137.765 47.7292 146.183C45.5182 142.826 42.6848 140.47 39.5715 139.401C39.4764 139.401 39.422 139.569 39.5239 139.608C42.7347 140.953 45.6069 143.625 47.7904 147.299C47.8054 147.324 47.824 147.344 47.8448 147.358C48.1167 150.32 48.375 153.281 48.6129 156.243C46.9054 154.143 44.9776 152.454 42.9026 151.238C42.8937 151.243 42.8862 151.252 42.8808 151.263C42.8755 151.275 42.8727 151.288 42.8727 151.302C42.8727 151.316 42.8755 151.329 42.8808 151.341C42.8862 151.352 42.8937 151.361 42.9026 151.366C45.0179 152.697 46.9554 154.559 48.6265 156.865C48.6265 156.865 48.6741 156.865 48.7013 156.914C48.9257 159.738 49.1568 162.561 49.3811 165.385C46.3013 159.98 42.3038 155.835 37.7836 153.36C37.7667 153.356 37.7493 153.36 37.7342 153.372C37.7192 153.385 37.7075 153.404 37.7011 153.427C37.6947 153.45 37.694 153.476 37.6992 153.5C37.7043 153.523 37.7149 153.544 37.7292 153.558C42.1928 156.418 46.1152 160.801 49.1636 166.333C49.1946 166.397 49.2391 166.446 49.2905 166.471C49.342 166.495 49.3976 166.496 49.4491 166.471C49.7482 170.808 50.0088 175.152 50.2309 179.502C50.2309 179.561 50.2989 179.571 50.2989 179.502C50.0677 175.073 49.8275 170.634 49.5783 166.184Z" fill="white"/>
<path d="M38.5926 98.7272C36.2201 96.3677 33.2085 95.3509 30.3737 95.0152C30.3058 95.0152 30.3058 95.1534 30.3737 95.1633C33.3173 95.7951 35.8122 97.3451 38.4974 99.0135C38.5926 99.0925 38.6946 98.8358 38.5926 98.7272Z" fill="white"/>
<path d="M40.2514 152.107C38.3489 150.524 36.2564 149.482 34.0855 149.036C34.0107 149.036 34.0039 149.194 34.0855 149.204C36.2144 149.824 38.2735 150.87 40.2038 152.314C40.2198 152.312 40.2351 152.304 40.2478 152.289C40.2605 152.275 40.27 152.255 40.2751 152.233C40.2801 152.211 40.2806 152.187 40.2764 152.165C40.2722 152.142 40.2635 152.122 40.2514 152.107Z" fill="white"/>
<path d="M88.0622 116.912C82.2785 122.721 76.967 129.464 72.2295 137.012C67.3468 144.996 63.5768 154.279 61.1283 164.348C55.9377 185.336 53.1476 207.416 52.8687 229.713C52.6933 242.067 53.5124 254.408 55.3092 266.487C55.3209 266.577 55.3568 266.657 55.4091 266.709C55.4614 266.761 55.5257 266.78 55.5879 266.763C55.6501 266.746 55.7051 266.694 55.7408 266.618C55.7765 266.542 55.7899 266.449 55.7782 266.358C53.5468 245.045 53.6316 223.355 56.0298 202.08C58.3819 181.23 62.0664 158.543 71.1962 141.593C76.1656 132.362 82.3655 125.106 88.4905 117.603C88.8032 117.228 88.3954 116.576 88.0622 116.912Z" fill="#EBEBEB"/>
<path d="M54.908 214.717C58.2067 206.984 62.0823 199.803 66.4647 193.304C73.3103 183.372 79.0683 176.313 79.9588 169.739C80.8494 163.164 73.1064 158.336 73.1064 158.336C73.1064 158.336 82.5761 160.804 85.1661 155.029C87.7562 149.254 89.0071 115.846 89.0071 115.846C89.0071 115.846 71.7808 133.695 63.759 158.731C55.7373 183.767 54.908 214.717 54.908 214.717Z" fill="#EBEBEB"/>
<path d="M82.9908 124.405C75.744 134.741 68.4497 145.759 64.1805 159.343C62.723 164.033 61.4542 168.843 60.3804 173.747C60.1629 174.734 59.9385 175.721 59.7006 176.708C59.6823 176.757 59.6707 176.811 59.6666 176.866C57.643 187.02 56.0112 197.329 54.7788 207.747C54.7788 207.806 54.8332 207.846 54.8468 207.747C55.5878 202.534 56.4035 197.262 57.3213 192.02C57.355 192.03 57.3896 192.03 57.4233 192.02C58.8605 191.123 60.3861 190.56 61.944 190.352C62.0459 190.352 62.0391 190.075 61.944 190.085C60.423 190.186 58.9184 190.585 57.4708 191.27C58.307 186.531 59.2112 181.812 60.2309 177.162C63.5713 175.975 66.99 175.313 70.428 175.188V175.099C67.0676 174.903 63.7039 175.341 60.4212 176.402C60.598 175.603 60.7815 174.813 60.9651 174.013C63.2034 173.241 65.4743 172.683 67.7631 172.345C67.8039 172.345 67.8039 172.236 67.7631 172.236C65.5231 172.3 63.2932 172.694 61.1078 173.411C62.0391 169.383 63.0521 165.414 64.1805 161.564C65.1093 158.397 66.1953 155.332 67.43 152.393C69.2439 151.741 71.0858 151.266 72.9432 150.971C72.9976 150.971 72.9908 150.843 72.9432 150.833C71.209 150.644 69.4654 150.895 67.7903 151.574C68.6944 149.451 69.6462 147.368 70.6659 145.354C74.5272 144.11 78.4429 142.955 82.3994 144.031C82.4673 144.031 82.4877 143.883 82.3994 143.863C78.64 142.422 74.9215 143.251 71.1621 144.327C71.57 143.537 71.9915 142.758 72.413 141.988C74.7509 140.942 77.1797 140.387 79.6257 140.339C79.6366 140.339 79.6469 140.333 79.6546 140.322C79.6622 140.31 79.6665 140.295 79.6665 140.28C79.6665 140.264 79.6622 140.249 79.6546 140.238C79.6469 140.227 79.6366 140.22 79.6257 140.22C77.3669 139.92 75.0893 140.214 72.9025 141.089C76.0907 135.334 79.6189 129.924 83.0996 124.563C83.2899 124.306 83.1607 124.168 82.9908 124.405Z" fill="white"/>
<path d="M82.7802 147.19C81.6547 146.956 80.5153 146.897 79.3812 147.012C79.2452 147.012 79.252 147.367 79.3812 147.367C80.5165 147.367 81.6449 147.298 82.7802 147.367C82.7917 147.359 82.8014 147.347 82.8082 147.331C82.815 147.315 82.8186 147.297 82.8186 147.279C82.8186 147.26 82.815 147.242 82.8082 147.226C82.8014 147.211 82.7917 147.198 82.7802 147.19Z" fill="white"/>
<path d="M70.4007 179.611C68.582 179.671 66.7847 180.195 65.0914 181.161C65.0506 181.161 65.0914 181.279 65.0914 181.269C66.8453 180.657 68.6196 180.41 70.3871 179.986C70.404 179.987 70.421 179.984 70.437 179.975C70.453 179.967 70.4678 179.954 70.4804 179.938C70.493 179.921 70.5033 179.901 70.5106 179.879C70.5179 179.857 70.5221 179.833 70.523 179.808C70.5239 179.784 70.5215 179.759 70.5158 179.736C70.5101 179.712 70.5014 179.691 70.49 179.673C70.4786 179.654 70.4649 179.639 70.4496 179.629C70.4342 179.618 70.4176 179.612 70.4007 179.611Z" fill="white"/>
<path d="M66.6889 168.406C65.9319 168.401 65.1762 168.5 64.432 168.701C64.3572 168.701 64.364 168.899 64.432 168.899C65.1858 168.958 65.9419 168.909 66.6889 168.751C66.8249 168.711 66.8181 168.416 66.6889 168.406Z" fill="white"/>
<path d="M4.38473 152.383C9.98908 155.142 15.3599 158.815 20.3942 163.331C25.6175 168.152 30.1452 174.402 33.7252 181.733C41.2734 196.975 47.0512 213.91 50.8291 231.865C52.9357 241.813 54.2362 252.083 54.704 262.469C54.6953 262.537 54.6705 262.598 54.6339 262.643C54.5973 262.687 54.5511 262.711 54.5035 262.711C54.4558 262.711 54.4097 262.687 54.373 262.643C54.3364 262.598 54.3116 262.537 54.3029 262.469C52.7173 244.471 49.1985 226.946 43.8747 210.531C38.6538 194.449 32.0529 177.33 21.9713 166.678C16.4785 160.873 10.3058 157.082 4.1536 153.064C3.83409 152.877 4.06522 152.215 4.38473 152.383Z" fill="#EBEBEB"/>
<path d="M46.8114 220.393C42.9147 215.241 38.6403 210.725 34.065 206.927C26.9475 201.192 21.1487 197.411 19.3948 192.395C17.6409 187.38 23.1202 180.865 23.1202 180.865C23.1202 180.865 15.853 186.038 12.8415 182.237C9.82994 178.436 3.49414 151.81 3.49414 151.81C3.49414 151.81 20.2718 160.478 30.7544 178.051C41.237 195.624 46.8114 220.393 46.8114 220.393Z" fill="#EBEBEB"/>
<path d="M45.9345 214.904C37.5389 192.02 26.3561 171.328 10.9993 157.645C15.0065 161.408 18.7639 165.705 22.2229 170.479C19.1007 170.231 15.9889 171.185 13.2018 173.243C13.1932 173.254 13.1871 173.269 13.1845 173.285C13.182 173.301 13.183 173.318 13.1876 173.334C13.1921 173.349 13.1999 173.362 13.2098 173.371C13.2197 173.379 13.2312 173.383 13.2426 173.381C16.2091 171.766 19.3615 170.991 22.5288 171.101C22.5666 171.1 22.6028 171.079 22.6308 171.042C23.1814 171.792 23.7184 172.552 24.2487 173.322C22.6269 173.432 21.0144 173.743 19.4289 174.25C19.4199 174.25 19.4112 174.255 19.4048 174.265C19.3985 174.274 19.3949 174.286 19.3949 174.299C19.3949 174.313 19.3985 174.325 19.4048 174.334C19.4112 174.344 19.4199 174.349 19.4289 174.349C21.1073 173.893 22.8134 173.688 24.5206 173.737C27.3373 177.858 29.9927 182.205 32.4744 186.758C31.3369 186.523 30.1779 186.645 29.0753 187.114C29.0617 187.12 29.0499 187.133 29.0415 187.15C29.0331 187.166 29.0286 187.187 29.0286 187.207C29.0286 187.228 29.0331 187.248 29.0415 187.265C29.0499 187.282 29.0617 187.295 29.0753 187.301C30.2693 187.101 31.4743 187.078 32.6715 187.232C33.1338 188.081 33.596 188.92 34.0311 189.779C30.6011 189.48 27.1599 189.966 23.834 191.221C23.7864 191.221 23.8 191.349 23.834 191.339C27.2779 190.36 30.7941 190.028 34.2962 190.352C34.7245 191.171 35.1324 192.02 35.5471 192.859C33.5039 192.773 31.4625 193.105 29.4832 193.847C29.474 193.842 29.4641 193.84 29.4545 193.842C29.4448 193.844 29.4356 193.85 29.4277 193.858C29.4197 193.866 29.4132 193.877 29.4087 193.89C29.4042 193.902 29.4019 193.916 29.4019 193.93C29.4019 193.945 29.4042 193.959 29.4087 193.971C29.4132 193.984 29.4197 193.995 29.4277 194.003C29.4356 194.011 29.4448 194.016 29.4545 194.018C29.4641 194.02 29.474 194.019 29.4832 194.014C31.543 193.366 33.6541 193.131 35.7578 193.313C37.5661 196.917 39.2928 200.609 40.9583 204.351C40.0699 204.117 39.1557 204.199 38.2935 204.588C38.2845 204.588 38.2758 204.593 38.2695 204.602C38.2631 204.611 38.2595 204.624 38.2595 204.637C38.2595 204.65 38.2631 204.663 38.2695 204.672C38.2758 204.681 38.2845 204.686 38.2935 204.686C39.2562 204.579 40.2244 204.645 41.1759 204.884C42.6715 208.267 44.1126 211.676 45.4994 215.111C45.7238 215.417 46.0705 215.2 45.9345 214.904Z" fill="white"/>
<path d="M32.8823 195.92C31.2322 195.763 29.5764 196.057 28.0013 196.789C27.9605 196.789 28.0013 196.907 28.0013 196.897C29.6067 196.504 31.2281 196.264 32.8551 196.177C32.9707 196.147 32.9911 195.94 32.8823 195.92Z" fill="white"/>
<path d="M18.2391 168.04C17.4886 167.958 16.7339 168.024 15.9957 168.238C15.9821 168.244 15.9703 168.257 15.9619 168.273C15.9535 168.29 15.949 168.31 15.949 168.331C15.949 168.352 15.9535 168.372 15.9619 168.389C15.9703 168.406 15.9821 168.418 15.9957 168.425C16.7367 168.316 17.4641 168.356 18.2051 168.316C18.2303 168.323 18.2563 168.315 18.2774 168.293C18.2984 168.272 18.3128 168.24 18.3173 168.203C18.3218 168.166 18.3161 168.129 18.3014 168.098C18.2867 168.068 18.2643 168.047 18.2391 168.04Z" fill="white"/>
<path d="M68.4567 296.044H30.571L35.9755 238.588L37.3555 223.858H61.6722L63.0522 238.588L68.4567 296.044Z" fill="#DBDBDB"/>
<path d="M63.052 238.588H35.9753L37.3553 223.858H61.672L63.052 238.588Z" fill="#C7C7C7"/>
<path d="M65.1456 218.745H33.8745V231.223H65.1456V218.745Z" fill="#DBDBDB"/>
<path d="M356.681 33.896C354.882 40.5439 353.824 47.5655 353.547 54.6968H341.025H340.868V54.1934L340.97 52.7816C341.123 50.3312 341.395 47.8997 341.786 45.5058C342.443 41.5883 343.389 37.7851 344.607 34.1625C344.63 34.0742 344.672 33.9997 344.728 33.9513C344.784 33.9029 344.849 33.8833 344.913 33.896H356.66H356.681Z" fill="#EBEBEB"/>
<path d="M356.3 80.345H344.648C344.587 80.3542 344.525 80.3328 344.473 80.2844C344.421 80.2359 344.382 80.1633 344.363 80.0784C343.017 76.0023 342.046 71.6875 341.473 67.2445C341.185 65.1065 340.994 62.943 340.902 60.7683C340.902 60.6992 340.902 60.6202 340.868 60.5511V60.0377H341.059H353.343C353.567 60.0377 353.56 60.0377 353.574 60.3734C353.656 61.8444 353.724 63.3351 353.819 64.806C353.98 67.1505 354.241 69.4782 354.6 71.7759C355.021 74.5879 355.573 77.3553 356.252 80.0587C356.259 80.1574 356.273 80.2463 356.3 80.345Z" fill="#EBEBEB"/>
<path d="M405.3 85.7155C405.3 85.8142 405.232 85.8932 405.205 85.9623C404.215 88.155 403.11 90.2342 401.901 92.1818C400.444 94.5738 398.822 96.7438 397.061 98.658C395.334 100.55 393.488 102.203 391.548 103.594C389.679 104.949 387.729 106.053 385.722 106.892C384.129 107.55 382.508 108.051 380.868 108.392L380.392 108.511H380.114L379.855 108.284L380.168 107.968C383.728 104.454 386.842 100.072 389.373 95.0152C390.803 92.1644 392.061 89.1388 393.132 85.9722C393.15 85.8863 393.189 85.8125 393.241 85.7638C393.294 85.7151 393.356 85.6945 393.417 85.7056H405.334L405.3 85.7155Z" fill="#EBEBEB"/>
<path d="M393.649 54.6771H377.279V33.9453H377.469H390.053C390.108 33.9354 390.164 33.955 390.21 34.0003C390.256 34.0457 390.29 34.1138 390.304 34.1921C391.482 38.0957 392.356 42.1786 392.908 46.3646C393.203 48.5407 393.414 50.7391 393.54 52.9494C393.581 53.4825 393.615 54.065 393.649 54.6771Z" fill="#EBEBEB"/>
<path d="M393.547 60.2253C393.547 60.709 393.547 61.2125 393.499 61.6864C393.431 62.8414 393.37 64.0064 393.261 65.1515C393.105 66.741 392.942 68.3403 392.717 69.9199C392.232 73.3858 391.522 76.7773 390.596 80.0488C390.582 80.1447 390.543 80.2292 390.488 80.2858C390.432 80.3424 390.364 80.367 390.297 80.3549H377.184V60.2253H393.547Z" fill="#EBEBEB"/>
<path d="M373.588 34.0342V54.8351H357.605C357.605 54.302 357.639 53.7886 357.68 53.2752C357.762 52.1103 357.823 50.9454 357.952 49.7903C358.149 48.0331 358.353 46.2659 358.632 44.5185C359.158 40.9906 359.926 37.5479 360.923 34.2415C360.941 34.16 360.978 34.0902 361.028 34.0435C361.077 33.9968 361.136 33.9761 361.195 33.9848H373.588V34.0342Z" fill="#EBEBEB"/>
<path d="M373.608 60.5018C373.608 67.0175 373.608 73.5365 373.608 80.0588V80.3451H360.821C360.758 80.3577 360.695 80.3366 360.642 80.2856C360.589 80.2347 360.551 80.1575 360.535 80.0686C359.565 76.6947 358.836 73.1847 358.36 69.5941C358.122 67.748 357.939 65.8822 357.782 64.0163C357.673 62.802 357.646 61.568 357.592 60.334C357.589 60.2913 357.589 60.2483 357.592 60.2056H373.384C373.567 60.1957 373.608 60.2648 373.608 60.5018Z" fill="#EBEBEB"/>
<path d="M411.004 54.8252H397.592C397.321 47.6521 396.265 40.5873 394.465 33.896H406.966C407.028 33.8838 407.09 33.9027 407.144 33.9494C407.197 33.9961 407.237 34.0678 407.259 34.1527C408.69 38.2701 409.731 42.6505 410.352 47.1742C410.687 49.5821 410.914 52.0191 411.031 54.4698L411.004 54.8252Z" fill="#EBEBEB"/>
<path d="M411.011 60.0674C411.011 60.5413 411.011 60.9855 410.97 61.4298C410.884 63.1869 410.736 64.9365 410.528 66.6719C410.031 70.701 409.203 74.6287 408.06 78.3706C407.884 78.9728 407.68 79.5651 407.496 80.1673C407.484 80.2272 407.457 80.2788 407.421 80.3131C407.385 80.3474 407.342 80.3622 407.299 80.3549H394.811C394.961 79.733 395.11 79.1307 395.253 78.5187C395.976 75.4242 396.531 72.252 396.912 69.0314C397.199 66.6969 397.392 64.34 397.489 61.9727C397.489 61.41 397.537 60.8473 397.551 60.2944C397.551 60.1464 397.551 60.0674 397.693 60.0871C397.734 60.0921 397.775 60.0921 397.816 60.0871L411.011 60.0674Z" fill="#EBEBEB"/>
<path d="M404.934 28.5945V28.6834H404.757C400.848 28.6834 396.939 28.6834 393.03 28.6834C392.971 28.6939 392.91 28.6753 392.858 28.6307C392.807 28.586 392.767 28.5178 392.745 28.4366C391.187 23.9123 389.231 19.701 386.926 15.9086C385.565 13.721 384.07 11.7185 382.459 9.92605C381.657 9.03754 380.828 8.1984 380.012 7.33951L379.876 7.19143L380.039 7.0236C380.039 6.92488 379.992 6.80641 379.958 6.65833C384.094 7.33254 388.112 9.08496 391.82 11.8314C397.118 15.6736 401.637 21.4503 404.934 28.5945Z" fill="#EBEBEB"/>
<path d="M371.317 108.284C371.207 108.334 371.093 108.36 370.977 108.363C369.69 108.118 368.414 107.759 367.157 107.286C364.809 106.415 362.53 105.187 360.359 103.624C357.873 101.826 355.543 99.6059 353.418 97.0094C351.907 95.173 350.513 93.1444 349.251 90.9479C348.307 89.2859 347.437 87.5382 346.647 85.7156C346.624 85.6635 346.605 85.6071 346.593 85.5477H346.783C350.427 85.5477 354.064 85.5477 357.707 85.5477C357.766 85.5408 357.824 85.5622 357.873 85.6087C357.923 85.6551 357.96 85.7239 357.979 85.8044C359.118 89.14 360.463 92.3187 361.997 95.3015C363.416 98.013 364.989 100.546 366.701 102.874C368.11 104.809 369.624 106.575 371.229 108.155L371.317 108.284Z" fill="#EBEBEB"/>
<path d="M371.174 7.16157C370.671 7.69467 370.087 8.29688 369.516 8.92871C367.609 11.0845 365.837 13.4795 364.22 16.0861C362.031 19.5512 360.163 23.4178 358.666 27.5873C358.571 27.8539 358.489 28.1303 358.38 28.3771C358.361 28.4194 358.336 28.4554 358.307 28.4827C358.278 28.5099 358.245 28.5278 358.21 28.535C358.013 28.535 357.816 28.535 357.619 28.535H346.946C352.894 16.3428 360.882 9.00769 371.052 6.81604C371.052 6.88515 371.004 6.95425 370.977 7.01348L371.174 7.16157Z" fill="#EBEBEB"/>
<path d="M388.761 85.7254C387.245 89.5672 385.419 93.1332 383.323 96.348C381.481 99.2298 379.409 101.782 377.15 103.95V85.7254H388.761Z" fill="#EBEBEB"/>
<path d="M373.588 85.7353V103.604C368.966 99.0038 365.16 92.8807 362.479 85.7353H373.588Z" fill="#EBEBEB"/>
<path d="M388.401 28.5254H377.279V11.5352C379.56 13.6953 381.655 16.244 383.52 19.127C385.364 22.0089 387 25.1582 388.401 28.5254Z" fill="#EBEBEB"/>
<path d="M373.588 12.019V28.6636H362.915C365.525 21.978 369.181 16.2766 373.588 12.019Z" fill="#EBEBEB"/>
<path d="M161.801 97.4241H68.3748V9.06726H161.801V97.4241ZM69.0546 96.4369H161.121V10.0545H69.0546V96.4369Z" fill="#EBEBEB"/>
<path d="M161.801 21.6643H68.3748V9.06726H161.801V21.6643ZM69.0546 20.6771H161.121V10.0545H69.0546V20.6771Z" fill="#EBEBEB"/>
<path d="M76.22 15.4842C76.22 16.07 76.1003 16.6426 75.8763 17.1296C75.6522 17.6167 75.3336 17.9963 74.961 18.2204C74.5883 18.4446 74.1783 18.5033 73.7827 18.389C73.3871 18.2747 73.0237 17.9926 72.7385 17.5784C72.4532 17.1642 72.259 16.6365 72.1803 16.062C72.1016 15.4875 72.142 14.892 72.2964 14.3508C72.4507 13.8096 72.7121 13.3471 73.0475 13.0217C73.3829 12.6962 73.7772 12.5225 74.1805 12.5225C74.7214 12.5225 75.2402 12.8346 75.6226 13.39C76.0051 13.9454 76.22 14.6987 76.22 15.4842Z" fill="#C7C7C7"/>
<path d="M84.4253 15.4842C84.4252 16.0721 84.3047 16.6466 84.0791 17.1347C83.8534 17.6227 83.5329 18.0022 83.1583 18.2249C82.7836 18.4475 82.3718 18.5032 81.9753 18.3849C81.5788 18.2665 81.2155 17.9795 80.9317 17.5604C80.6479 17.1412 80.4564 16.6089 80.3816 16.0312C80.3068 15.4534 80.352 14.8565 80.5116 14.3162C80.6712 13.776 80.9379 13.3169 81.2777 12.9975C81.6175 12.6781 82.0151 12.5127 82.4198 12.5225C82.6861 12.5225 82.9497 12.5994 83.1952 12.7488C83.4408 12.8983 83.6634 13.1172 83.85 13.3929C84.0367 13.6686 84.1837 13.9955 84.2825 14.3546C84.3812 14.7136 84.4298 15.0976 84.4253 15.4842Z" fill="#EBEBEB"/>
<path d="M92.6374 15.4842C92.6374 16.07 92.5178 16.6426 92.2937 17.1296C92.0696 17.6167 91.7511 17.9963 91.3785 18.2204C91.0058 18.4446 90.5958 18.5033 90.2001 18.389C89.8045 18.2747 89.4411 17.9926 89.1559 17.5784C88.8707 17.1642 88.6765 16.6365 88.5978 16.062C88.5191 15.4875 88.5595 14.892 88.7138 14.3508C88.8682 13.8096 89.1296 13.3471 89.465 13.0217C89.8003 12.6962 90.1947 12.5225 90.598 12.5225C91.1389 12.5225 91.6576 12.8346 92.0401 13.39C92.4226 13.9454 92.6374 14.6987 92.6374 15.4842Z" fill="#FFC727"/>
<path d="M223.5 390.493C346.936 390.493 447 372.229 447 349.7C447 327.171 346.936 308.908 223.5 308.908C100.064 308.908 0 327.171 0 349.7C0 372.229 100.064 390.493 223.5 390.493Z" fill="#EBEBEB"/>
<path d="M3.05225 296.044L58.1642 295.807L113.276 295.719L223.5 295.551L333.724 295.719L388.836 295.807L443.948 296.044L388.836 296.291L333.724 296.37L223.5 296.538L113.276 296.37L58.1642 296.281L3.05225 296.044Z" fill="#263238"/>
<path d="M355.192 53.4332H91.2979V309.787H355.192V53.4332Z" fill="#DBDBDB"/>
<path d="M353.275 56.5627H93.2151V306.657H353.275V56.5627Z" fill="#263238"/>
<path d="M389.563 329.008H56.927V346.6H389.563V329.008Z" fill="#C7C7C7"/>
<path d="M56.927 329.008L91.298 309.787H355.192L389.563 329.008H56.927Z" fill="#DBDBDB"/>
<path d="M94.3706 322.196L116.553 309.787H329.944L352.126 322.196H94.3706Z" fill="#263238"/>
<path d="M338.578 75.5669H107.913V287.663H338.578V75.5669Z" fill="white"/>
<path d="M338.584 75.5669H107.722V83.7313H338.584V75.5669Z" fill="#455A64"/>
<path d="M112.188 79.654C112.188 80.0563 112.106 80.4495 111.951 80.7833C111.796 81.1171 111.577 81.3764 111.32 81.528C111.063 81.6796 110.781 81.7167 110.51 81.6346C110.239 81.5524 109.991 81.3547 109.797 81.0667C109.604 80.7787 109.474 80.4135 109.424 80.0177C109.374 79.6219 109.407 79.2135 109.517 78.8447C109.628 78.4759 109.812 78.1633 110.045 77.947C110.279 77.7307 110.552 77.6204 110.829 77.6302C111.192 77.6431 111.538 77.862 111.792 78.2401C112.046 78.6183 112.188 79.1257 112.188 79.654Z" fill="#C7C7C7"/>
<path d="M117.879 79.654C117.878 80.0563 117.796 80.4495 117.641 80.7833C117.486 81.1171 117.267 81.3764 117.01 81.528C116.753 81.6796 116.472 81.7167 116.2 81.6346C115.929 81.5524 115.681 81.3547 115.487 81.0667C115.294 80.7787 115.164 80.4135 115.114 80.0177C115.064 79.6219 115.097 79.2135 115.207 78.8447C115.318 78.4759 115.502 78.1633 115.736 77.947C115.969 77.7307 116.242 77.6204 116.519 77.6302C116.883 77.6431 117.228 77.862 117.482 78.2401C117.736 78.6183 117.879 79.1257 117.879 79.654Z" fill="white"/>
<path d="M123.568 79.654C123.568 80.0543 123.487 80.4456 123.334 80.7784C123.18 81.1112 122.963 81.3706 122.708 81.5238C122.454 81.6769 122.173 81.717 121.903 81.6389C121.633 81.5608 121.384 81.3681 121.189 81.0851C120.995 80.802 120.862 80.4414 120.808 80.0488C120.754 79.6563 120.782 79.2493 120.887 78.8795C120.993 78.5097 121.171 78.1936 121.401 77.9713C121.63 77.7489 121.899 77.6302 122.175 77.6302C122.544 77.6302 122.899 77.8434 123.16 78.223C123.422 78.6025 123.568 79.1173 123.568 79.654Z" fill="#FFC727"/>
<path d="M118.993 192.109L208.694 192.109V100.879L118.993 100.879L118.993 192.109Z" fill="#EBEBEB"/>
<path d="M129.476 126.814C129.476 128.948 129.912 131.034 130.728 132.809C131.545 134.583 132.705 135.966 134.063 136.783C135.42 137.6 136.914 137.813 138.356 137.397C139.797 136.981 141.121 135.953 142.16 134.444C143.199 132.935 143.907 131.012 144.194 128.919C144.48 126.826 144.333 124.656 143.771 122.685C143.208 120.713 142.256 119.028 141.034 117.842C139.812 116.656 138.376 116.023 136.906 116.023C134.935 116.023 133.046 117.16 131.652 119.184C130.259 121.208 129.476 123.952 129.476 126.814Z" fill="#DBDBDB"/>
<path d="M158.81 172.453H208.701L183.752 123.359L158.81 172.453Z" fill="#C7C7C7"/>
<path d="M139.272 172.503H180.455L159.863 140.526L139.272 172.503Z" fill="#DBDBDB"/>
<path d="M208.694 172.453H118.993V192.109H208.694V172.453Z" fill="#DBDBDB"/>
<path d="M221.454 270.189H271.576V204.331H221.454V270.189Z" fill="#EBEBEB"/>
<path d="M227.932 218.725C227.707 220.366 227.851 222.069 228.343 223.583C228.835 225.096 229.649 226.339 230.665 227.129C231.682 227.918 232.846 228.212 233.986 227.967C235.126 227.722 236.181 226.95 236.996 225.767C237.811 224.583 238.342 223.051 238.511 221.395C238.68 219.739 238.478 218.049 237.934 216.573C237.391 215.097 236.534 213.915 235.492 213.2C234.45 212.485 233.277 212.276 232.147 212.604C231.107 212.906 230.151 213.648 229.401 214.737C228.651 215.827 228.14 217.214 227.932 218.725Z" fill="#DBDBDB"/>
<path d="M235.566 255.993H271.583L253.574 220.551L235.566 255.993Z" fill="#C7C7C7"/>
<path d="M221.46 256.022H251.195L236.328 232.941L221.46 256.022Z" fill="#DBDBDB"/>
<path d="M271.583 255.993H221.46V270.179H271.583V255.993Z" fill="#DBDBDB"/>
<path d="M301.861 100.889H221.46V106.783H301.861V100.889Z" fill="#A6A6A6"/>
<path d="M319.346 113.081H221.46V118.975H319.346V113.081Z" fill="#DBDBDB"/>
<path d="M319.346 125.274H221.46V131.168H319.346V125.274Z" fill="#DBDBDB"/>
<path d="M319.346 137.476H221.46V143.37H319.346V137.476Z" fill="#DBDBDB"/>
<path d="M319.346 149.668H221.46V155.562H319.346V149.668Z" fill="#DBDBDB"/>
<path d="M286.443 161.86H221.46V167.754H286.443V161.86Z" fill="#DBDBDB"/>
<path d="M311.61 204.321H276.049V210.126H311.61V204.321Z" fill="#A6A6A6"/>
<path d="M319.339 216.336H276.049V222.14H319.339V216.336Z" fill="#DBDBDB"/>
<path d="M319.339 228.35H276.049V234.155H319.339V228.35Z" fill="#DBDBDB"/>
<path d="M319.339 240.355H276.049V246.16H319.339V240.355Z" fill="#DBDBDB"/>
<path d="M319.339 252.37H276.049V258.174H319.339V252.37Z" fill="#DBDBDB"/>
<path d="M305.43 264.384H276.049V270.189H305.43V264.384Z" fill="#DBDBDB"/>
<path d="M319.346 174.793H221.46V192.109H319.346V174.793Z" fill="#FFC727"/>
<path d="M208.694 204.321H118.993V221.637H208.694V204.321Z" fill="#A6A6A6"/>
<path d="M208.694 227.945H118.993V233.8H208.694V227.945Z" fill="#DBDBDB"/>
<path d="M208.694 240.069H118.993V245.923H208.694V240.069Z" fill="#DBDBDB"/>
<path d="M208.694 252.202H118.993V258.056H208.694V252.202Z" fill="#DBDBDB"/>
<path d="M180.455 264.325H118.993V270.179H180.455V264.325Z" fill="#DBDBDB"/>
<path d="M338.577 83.7213H332.412V287.653H338.577V83.7213Z" fill="#DBDBDB"/>
<path d="M335.491 190.451C335.069 190.451 334.665 190.207 334.366 189.774C334.068 189.341 333.9 188.753 333.9 188.14V88.0553C333.9 87.4426 334.068 86.855 334.366 86.4218C334.665 85.9886 335.069 85.7452 335.491 85.7452C335.913 85.7452 336.318 85.9886 336.616 86.4218C336.914 86.855 337.082 87.4426 337.082 88.0553V188.14C337.082 188.753 336.914 189.341 336.616 189.774C336.318 190.207 335.913 190.451 335.491 190.451Z" fill="#A6A6A6"/>
<path d="M196.349 190.223V334.931C196.329 338.048 195.459 341.026 193.93 343.214C192.401 345.401 190.337 346.619 188.191 346.6H31.5634C29.4172 346.619 27.3534 345.401 25.8243 343.214C24.2952 341.026 23.4255 338.048 23.4058 334.931V190.223C23.4255 187.108 24.2954 184.13 25.8247 181.945C27.354 179.759 29.4178 178.543 31.5634 178.564H188.15C189.216 178.546 190.274 178.833 191.263 179.41C192.252 179.986 193.154 180.84 193.915 181.923C194.677 183.007 195.284 184.297 195.701 185.721C196.119 187.146 196.339 188.676 196.349 190.223Z" fill="#455A64"/>
<path d="M184.472 185.623H35.6013V339.314H184.472V185.623Z" fill="white"/>
<path d="M44.4592 263.495H110.502V196.334H44.4592V263.495Z" fill="#EBEBEB"/>
<path d="M52.1886 215.437C52.1953 216.997 52.52 218.519 53.1216 219.812C53.7233 221.104 54.575 222.108 55.5693 222.699C56.5636 223.289 57.656 223.438 58.7087 223.128C59.7614 222.818 60.7273 222.062 61.4845 220.955C62.2416 219.849 62.7562 218.441 62.9633 216.911C63.1704 215.38 63.0608 213.794 62.6482 212.354C62.2356 210.914 61.5385 209.683 60.6449 208.818C59.7513 207.952 58.7012 207.49 57.627 207.49C56.91 207.49 56.2 207.696 55.5379 208.096C54.8759 208.496 54.2749 209.082 53.7694 209.821C53.2639 210.559 52.8641 211.436 52.5928 212.4C52.3215 213.364 52.1841 214.396 52.1886 215.437Z" fill="#DBDBDB"/>
<path d="M73.7727 249.033H110.503L92.1343 212.89L73.7727 249.033Z" fill="#C7C7C7"/>
<path d="M59.3879 249.062H89.7073L74.5476 225.527L59.3879 249.062Z" fill="#DBDBDB"/>
<path d="M110.502 249.033H44.4592V263.505H110.502V249.033Z" fill="#DBDBDB"/>
<path d="M131.454 327.31H175.615V282.401H131.454V327.31Z" fill="#EBEBEB"/>
<path d="M136.614 295.176C136.613 296.228 136.826 297.258 137.228 298.135C137.63 299.011 138.202 299.694 138.871 300.099C139.541 300.503 140.278 300.61 140.989 300.406C141.7 300.201 142.354 299.695 142.867 298.952C143.38 298.208 143.729 297.26 143.871 296.227C144.013 295.195 143.941 294.124 143.664 293.151C143.387 292.179 142.917 291.347 142.315 290.762C141.712 290.177 141.003 289.864 140.278 289.864C139.797 289.863 139.321 289.999 138.876 290.266C138.432 290.532 138.028 290.923 137.688 291.416C137.347 291.91 137.077 292.496 136.893 293.141C136.709 293.786 136.614 294.477 136.614 295.176Z" fill="#DBDBDB"/>
<path d="M151.06 317.635H175.614L163.337 293.468L151.06 317.635Z" fill="#C7C7C7"/>
<path d="M141.44 317.665H161.712L151.576 301.918L141.44 317.665Z" fill="#DBDBDB"/>
<path d="M175.614 317.645H131.454V327.32H175.614V317.645Z" fill="#DBDBDB"/>
<path d="M175.621 196.344H116.199V212.752H175.621V196.344Z" fill="#FFC727"/>
<path d="M175.621 218.981H116.199V221.282H175.621V218.981Z" fill="#DBDBDB"/>
<path d="M175.621 224.381H116.199V226.682H175.621V224.381Z" fill="#DBDBDB"/>
<path d="M175.621 229.782H116.199V232.082H175.621V229.782Z" fill="#DBDBDB"/>
<path d="M175.621 235.182H116.199V237.482H175.621V235.182Z" fill="#DBDBDB"/>
<path d="M175.621 240.582H116.199V242.882H175.621V240.582Z" fill="#DBDBDB"/>
<path d="M175.621 245.982H116.199V248.282H175.621V245.982Z" fill="#DBDBDB"/>
<path d="M150.36 251.382H116.199V253.682H150.36V251.382Z" fill="#DBDBDB"/>
<path d="M125.173 314.812H65.751V317.112H125.173V314.812Z" fill="#DBDBDB"/>
<path d="M125.173 282.411H65.751V284.711H125.173V282.411Z" fill="#DBDBDB"/>
<path d="M125.173 287.811H65.751V290.111H125.173V287.811Z" fill="#DBDBDB"/>
<path d="M125.173 293.211H65.751V295.511H125.173V293.211Z" fill="#DBDBDB"/>
<path d="M106.274 298.611H65.751V300.911H106.274V298.611Z" fill="#DBDBDB"/>
<path d="M125.173 309.411H65.751V311.712H125.173V309.411Z" fill="#DBDBDB"/>
<path d="M106.274 320.212H65.751V322.512H106.274V320.212Z" fill="#DBDBDB"/>
<path d="M175.621 270.998H44.4592V276.428H175.621V270.998Z" fill="#455A64"/>
<path d="M61.4408 282.411H44.4592V327.32H61.4408V282.411Z" fill="#FFC727"/>
<path d="M30.5709 244.284H30.4689C29.9996 244.284 29.6191 244.837 29.6191 245.518V279.627C29.6191 280.308 29.9996 280.861 30.4689 280.861H30.5709C31.0402 280.861 31.4206 280.308 31.4206 279.627V245.518C31.4206 244.837 31.0402 244.284 30.5709 244.284Z" fill="#37474F"/>
<path d="M194.268 262.567C194.27 263.506 194.079 264.423 193.721 265.204C193.363 265.985 192.854 266.594 192.257 266.953C191.661 267.313 191.004 267.408 190.37 267.225C189.737 267.043 189.155 266.591 188.698 265.928C188.241 265.265 187.93 264.42 187.805 263.499C187.679 262.579 187.744 261.626 187.992 260.759C188.24 259.893 188.659 259.153 189.197 258.633C189.734 258.113 190.366 257.837 191.012 257.839C191.875 257.841 192.702 258.34 193.313 259.227C193.923 260.113 194.267 261.314 194.268 262.567Z" fill="#37474F"/>
<path d="M413.241 147.575H352.663C351.025 147.601 349.461 148.57 348.313 150.269C347.166 151.968 346.53 154.259 346.545 156.638V337.696C346.532 340.074 347.169 342.363 348.315 344.061C349.462 345.76 351.025 346.73 352.663 346.758H413.227C414.865 346.73 416.428 345.76 417.575 344.061C418.721 342.363 419.358 340.074 419.345 337.696V156.658C419.364 154.278 418.731 151.986 417.586 150.283C416.442 148.58 414.879 147.606 413.241 147.575ZM415.545 332.098C415.545 336.866 413.084 340.716 410.052 340.716H355.872C352.833 340.716 350.379 336.866 350.379 332.098V163.499C350.379 153.795 352.833 153.321 355.872 153.321H366.749C367.381 153.321 367.898 154.308 367.898 155.651V156.204C367.898 159.234 369.04 159.244 370.44 159.244H395.491C396.898 159.244 398.027 159.244 398.027 156.204V155.67C398.027 154.377 398.537 153.341 399.182 153.341H410.059C413.091 153.341 415.552 154.634 415.552 163.519L415.545 332.098Z" fill="#455A64"/>
<path d="M386.381 155.463H379.536C379.424 155.463 379.317 155.399 379.238 155.284C379.159 155.169 379.114 155.013 379.114 154.851C379.114 154.689 379.159 154.533 379.238 154.418C379.317 154.304 379.424 154.239 379.536 154.239H386.381C386.494 154.239 386.602 154.303 386.682 154.418C386.762 154.532 386.808 154.688 386.81 154.851C386.808 155.014 386.762 155.17 386.682 155.285C386.602 155.399 386.494 155.463 386.381 155.463Z" fill="white"/>
<path d="M415.545 163.499V332.098C415.545 336.866 413.084 340.716 410.052 340.716H355.872C352.833 340.716 350.379 336.866 350.379 332.098V163.499C350.379 153.795 352.833 153.321 355.872 153.321H366.749C367.381 153.321 367.897 154.308 367.897 155.651V156.204C367.897 159.234 369.04 159.244 370.44 159.244H395.491C396.898 159.244 398.027 159.244 398.027 156.204V155.671C398.027 154.377 398.536 153.341 399.182 153.341H410.059C413.084 153.321 415.545 154.614 415.545 163.499Z" fill="white"/>
<path d="M415.545 163.499V176.077H350.372V163.499C350.372 153.795 352.833 153.321 355.872 153.321H366.749C367.374 153.321 367.891 154.308 367.891 155.651V156.204C367.891 159.234 369.033 159.244 370.427 159.244H395.491C396.898 159.244 398.034 159.244 398.034 156.204V155.671C398.034 154.377 398.543 153.341 399.182 153.341H410.059C413.084 153.321 415.545 154.614 415.545 163.499Z" fill="#FFC727"/>
<path d="M356.552 169.936L354.628 167.32L356.552 164.704L356.851 165.158L355.267 167.32L356.851 169.482L356.552 169.936Z" fill="white"/>
<path d="M409.665 170.173H408.305V169.492C408.305 169.473 408.301 169.454 408.294 169.438C408.287 169.423 408.277 169.41 408.265 169.403L408.115 169.274C408.103 169.267 408.091 169.263 408.078 169.263C408.065 169.263 408.052 169.267 408.04 169.274L407.626 169.63L406.946 167.922L407.361 167.576C407.369 167.561 407.373 167.542 407.373 167.522C407.373 167.502 407.369 167.483 407.361 167.468V167.231C407.369 167.215 407.373 167.196 407.373 167.177C407.373 167.157 407.369 167.138 407.361 167.122L406.946 166.777L407.626 165.069L408.04 165.414C408.052 165.424 408.065 165.429 408.078 165.429C408.091 165.429 408.104 165.424 408.115 165.414L408.265 165.286C408.277 165.278 408.287 165.266 408.294 165.25C408.301 165.235 408.305 165.216 408.305 165.197V164.496H409.665V165.197C409.665 165.216 409.669 165.235 409.676 165.25C409.684 165.266 409.694 165.278 409.706 165.286L409.855 165.414C409.867 165.424 409.88 165.429 409.893 165.429C409.906 165.429 409.919 165.424 409.93 165.414L410.345 165.069L411.025 166.777L410.61 167.122C410.602 167.138 410.597 167.157 410.597 167.177C410.597 167.196 410.602 167.215 410.61 167.231V167.468C410.602 167.483 410.597 167.502 410.597 167.522C410.597 167.542 410.602 167.561 410.61 167.576L411.025 167.922L410.345 169.63L409.93 169.284C409.919 169.275 409.906 169.27 409.893 169.27C409.88 169.27 409.867 169.275 409.855 169.284L409.706 169.413C409.694 169.42 409.684 169.433 409.676 169.448C409.669 169.464 409.665 169.483 409.665 169.501V170.173ZM408.645 169.679H409.325V169.492C409.326 169.382 409.347 169.274 409.387 169.18C409.426 169.087 409.483 169.01 409.549 168.958C409.59 168.931 409.629 168.898 409.665 168.86C409.731 168.804 409.806 168.775 409.883 168.775C409.959 168.775 410.034 168.804 410.1 168.86L410.222 168.968L410.562 168.109L410.44 168.001C410.374 167.947 410.32 167.868 410.284 167.772C410.248 167.676 410.232 167.567 410.236 167.458V167.26C410.232 167.15 410.249 167.04 410.285 166.942C410.321 166.845 410.374 166.764 410.44 166.708L410.562 166.609L410.222 165.75L410.1 165.859C410.035 165.914 409.961 165.943 409.886 165.943C409.811 165.943 409.737 165.914 409.672 165.859L409.549 165.76C409.483 165.708 409.426 165.632 409.387 165.538C409.347 165.444 409.326 165.337 409.325 165.227V165.019H408.645V165.227C408.644 165.337 408.623 165.444 408.584 165.538C408.544 165.632 408.488 165.708 408.421 165.76C408.38 165.787 408.342 165.82 408.305 165.859C408.239 165.914 408.164 165.943 408.088 165.943C408.012 165.943 407.937 165.914 407.87 165.859L407.748 165.75L407.408 166.609L407.53 166.708C407.596 166.764 407.65 166.845 407.686 166.942C407.722 167.04 407.739 167.15 407.734 167.26V167.458C407.739 167.568 407.722 167.678 407.686 167.776C407.65 167.873 407.596 167.955 407.53 168.011L407.408 168.109L407.748 168.968L407.87 168.86C407.937 168.804 408.012 168.775 408.088 168.775C408.164 168.775 408.239 168.804 408.305 168.86C408.342 168.898 408.38 168.931 408.421 168.958C408.488 169.01 408.544 169.087 408.584 169.18C408.623 169.274 408.644 169.382 408.645 169.492V169.679ZM408.985 168.781C408.786 168.781 408.592 168.695 408.426 168.535C408.261 168.374 408.132 168.146 408.056 167.879C407.98 167.612 407.96 167.318 407.998 167.035C408.037 166.751 408.133 166.491 408.274 166.287C408.415 166.082 408.594 165.943 408.789 165.887C408.984 165.83 409.186 165.859 409.37 165.97C409.554 166.08 409.711 166.268 409.822 166.508C409.932 166.748 409.991 167.031 409.991 167.32C409.99 167.706 409.883 168.077 409.695 168.35C409.506 168.623 409.252 168.778 408.985 168.781ZM408.985 166.352C408.851 166.352 408.719 166.41 408.608 166.519C408.496 166.627 408.409 166.781 408.357 166.962C408.306 167.142 408.292 167.341 408.318 167.532C408.345 167.724 408.409 167.899 408.505 168.037C408.6 168.176 408.721 168.27 408.853 168.308C408.984 168.346 409.121 168.326 409.245 168.252C409.37 168.177 409.476 168.05 409.55 167.888C409.625 167.726 409.665 167.535 409.665 167.339C409.665 167.078 409.593 166.827 409.466 166.641C409.338 166.456 409.166 166.352 408.985 166.352Z" fill="white"/>
<path d="M364.852 157.102L364.75 157.26L364.689 157.349C364.556 157.152 364.398 156.995 364.223 156.888C364.047 156.782 363.859 156.727 363.669 156.727C363.48 156.727 363.292 156.782 363.116 156.888C362.941 156.995 362.783 157.152 362.65 157.349L362.595 157.26L362.493 157.112C362.533 157.051 362.576 156.995 362.623 156.944C362.716 156.831 362.819 156.734 362.928 156.658C363.058 156.567 363.195 156.501 363.336 156.46H363.54H363.853C363.981 156.483 364.106 156.526 364.227 156.589C364.314 156.638 364.398 156.697 364.478 156.766C364.565 156.834 364.647 156.913 364.723 157.003L364.832 157.151L364.852 157.102Z" fill="white"/>
<path d="M362.996 157.823L362.833 157.586C362.944 157.425 363.075 157.297 363.22 157.209C363.364 157.122 363.52 157.077 363.676 157.077C363.833 157.077 363.988 157.122 364.133 157.209C364.277 157.297 364.409 157.425 364.519 157.586L364.356 157.833C364.175 157.572 363.931 157.426 363.676 157.426C363.422 157.426 363.177 157.572 362.996 157.833V157.823Z" fill="white"/>
<path d="M364.22 158.059L364.057 158.306C364.013 158.24 363.96 158.188 363.902 158.152C363.843 158.117 363.78 158.098 363.717 158.098C363.654 158.098 363.591 158.117 363.533 158.152C363.474 158.188 363.422 158.24 363.377 158.306L363.214 158.059C363.349 157.869 363.529 157.762 363.717 157.762C363.905 157.762 364.086 157.869 364.22 158.059Z" fill="white"/>
<path d="M363.826 158.523C363.826 158.566 363.817 158.608 363.801 158.644C363.784 158.679 363.761 158.707 363.733 158.724C363.706 158.74 363.676 158.744 363.647 158.736C363.618 158.728 363.591 158.707 363.57 158.677C363.549 158.646 363.535 158.608 363.529 158.566C363.524 158.523 363.527 158.48 363.538 158.44C363.549 158.401 363.568 158.367 363.593 158.343C363.618 158.319 363.647 158.306 363.676 158.306C363.696 158.305 363.716 158.31 363.734 158.32C363.753 158.33 363.77 158.346 363.784 158.367C363.798 158.387 363.809 158.412 363.816 158.439C363.823 158.466 363.827 158.494 363.826 158.523Z" fill="white"/>
<path d="M354.628 157.566C354.628 157.401 354.673 157.243 354.753 157.126C354.834 157.009 354.943 156.944 355.056 156.944C355.17 156.944 355.28 157.009 355.361 157.126C355.443 157.242 355.489 157.4 355.491 157.566C355.491 157.733 355.445 157.894 355.364 158.013C355.282 158.131 355.172 158.198 355.056 158.198C354.942 158.195 354.833 158.127 354.753 158.009C354.673 157.891 354.628 157.732 354.628 157.566Z" fill="white"/>
<path d="M355.988 157.566C355.988 157.401 356.033 157.243 356.113 157.126C356.193 157.009 356.302 156.944 356.416 156.944C356.53 156.944 356.64 157.009 356.721 157.126C356.802 157.242 356.849 157.4 356.851 157.566C356.851 157.733 356.805 157.894 356.723 158.013C356.642 158.131 356.531 158.198 356.416 158.198C356.302 158.195 356.193 158.127 356.113 158.009C356.032 157.891 355.988 157.732 355.988 157.566Z" fill="white"/>
<path d="M357.347 157.566C357.36 157.413 357.411 157.273 357.491 157.171C357.57 157.069 357.673 157.013 357.779 157.013C357.885 157.013 357.987 157.069 358.066 157.171C358.146 157.273 358.197 157.413 358.21 157.566C358.218 157.655 358.213 157.745 358.194 157.831C358.176 157.917 358.146 157.996 358.105 158.063C358.064 158.13 358.014 158.184 357.958 158.221C357.901 158.258 357.84 158.277 357.779 158.277C357.717 158.277 357.656 158.258 357.6 158.221C357.543 158.184 357.493 158.13 357.452 158.063C357.411 157.996 357.381 157.917 357.363 157.831C357.345 157.745 357.339 157.655 357.347 157.566Z" fill="white"/>
<path d="M358.707 157.566C358.707 157.441 358.732 157.319 358.78 157.215C358.828 157.111 358.896 157.03 358.975 156.982C359.055 156.934 359.142 156.922 359.226 156.946C359.311 156.971 359.388 157.031 359.449 157.119C359.51 157.207 359.552 157.32 359.568 157.443C359.585 157.565 359.576 157.692 359.544 157.808C359.511 157.923 359.455 158.022 359.383 158.091C359.312 158.161 359.228 158.198 359.142 158.198C359.026 158.198 358.916 158.131 358.834 158.013C358.752 157.894 358.707 157.733 358.707 157.566Z" fill="white"/>
<path d="M360.066 157.566C360.068 157.4 360.115 157.242 360.196 157.126C360.278 157.009 360.387 156.944 360.501 156.944C360.615 156.944 360.724 157.009 360.804 157.126C360.885 157.243 360.93 157.401 360.93 157.566C360.93 157.732 360.885 157.891 360.805 158.009C360.725 158.127 360.616 158.195 360.501 158.198C360.386 158.198 360.275 158.131 360.194 158.013C360.112 157.894 360.066 157.733 360.066 157.566Z" fill="white"/>
<path d="M410.651 158.928H407.143V156.579H410.651V158.928ZM407.313 158.681H410.481V156.825H407.313V158.681Z" fill="white"/>
<path d="M409.692 156.974H407.428V158.534H409.692V156.974Z" fill="white"/>
<path d="M410.97 157.122H410.657V158.385H410.97V157.122Z" fill="white"/>
<path d="M360.277 330.41H359.781V333.717H358.856V332.029H357.218V333.717H356.293V330.41H355.797L358.04 327.053L360.277 330.41Z" fill="#EBEBEB"/>
<path d="M410.134 327.053H404.729V328.179H410.134V327.053Z" fill="#EBEBEB"/>
<path d="M410.134 329.817H404.729V330.943H410.134V329.817Z" fill="#EBEBEB"/>
<path d="M410.134 332.592H404.729V333.717H410.134V332.592Z" fill="#EBEBEB"/>
<path d="M360.175 192.632C359.601 193.152 358.938 193.428 358.261 193.428C357.585 193.428 356.922 193.152 356.348 192.632C355.675 192.028 355.156 191.121 354.87 190.05C354.584 188.979 354.547 187.801 354.763 186.696C354.979 185.591 355.438 184.619 356.069 183.926C356.701 183.234 357.47 182.859 358.261 182.859C359.052 182.859 359.822 183.234 360.453 183.926C361.085 184.619 361.543 185.591 361.76 186.696C361.976 187.801 361.938 188.979 361.652 190.05C361.366 191.121 360.848 192.028 360.175 192.632Z" fill="#DBDBDB"/>
<path d="M359.366 187.538C359.366 187.857 359.301 188.168 359.179 188.433C359.057 188.698 358.883 188.904 358.68 189.026C358.478 189.147 358.254 189.179 358.039 189.116C357.824 189.053 357.627 188.899 357.472 188.672C357.317 188.446 357.212 188.159 357.17 187.846C357.128 187.533 357.151 187.209 357.236 186.915C357.321 186.622 357.464 186.371 357.647 186.195C357.83 186.02 358.045 185.927 358.265 185.929C358.557 185.932 358.838 186.102 359.044 186.404C359.25 186.705 359.366 187.113 359.366 187.538Z" fill="white"/>
<path d="M360.175 191.971V192.632C359.601 193.152 358.938 193.428 358.261 193.428C357.585 193.428 356.922 193.152 356.348 192.632V191.971C356.377 191.262 356.591 190.597 356.947 190.11C357.302 189.624 357.773 189.353 358.261 189.353C358.75 189.353 359.22 189.624 359.576 190.11C359.932 190.597 360.146 191.262 360.175 191.971Z" fill="white"/>
<path d="M389.57 183.165H366.457V185.929H389.57V183.165Z" fill="#EBEBEB"/>
<path d="M386.633 187.775H366.457V189.611H386.633V187.775Z" fill="#EBEBEB"/>
<path d="M399.815 191.309H366.457V193.146H399.815V191.309Z" fill="#EBEBEB"/>
<path d="M350.379 264.058H415.545V197.795H350.379V264.058Z" fill="#EBEBEB"/>
<path d="M357.993 216.632C357.993 218.182 358.309 219.698 358.903 220.987C359.496 222.276 360.339 223.28 361.325 223.874C362.311 224.467 363.397 224.622 364.444 224.32C365.491 224.017 366.452 223.271 367.207 222.174C367.962 221.078 368.476 219.682 368.685 218.161C368.893 216.64 368.786 215.064 368.377 213.632C367.969 212.2 367.277 210.976 366.389 210.114C365.502 209.253 364.458 208.793 363.391 208.793C361.959 208.793 360.586 209.619 359.574 211.089C358.562 212.559 357.993 214.553 357.993 216.632Z" fill="#DBDBDB"/>
<path d="M379.312 249.783H415.545L397.429 214.114L379.312 249.783Z" fill="#C7C7C7"/>
<path d="M365.104 249.812H395.022L380.059 226.593L365.104 249.812Z" fill="#DBDBDB"/>
<path d="M415.545 249.783H350.379V264.058H415.545V249.783Z" fill="#DBDBDB"/>
<path d="M360.175 298.996C359.601 299.516 358.938 299.792 358.261 299.792C357.585 299.792 356.922 299.516 356.348 298.996C355.675 298.392 355.156 297.485 354.87 296.414C354.584 295.343 354.547 294.165 354.763 293.06C354.979 291.955 355.438 290.983 356.069 290.29C356.701 289.598 357.47 289.223 358.261 289.223C359.052 289.223 359.822 289.598 360.453 290.29C361.085 290.983 361.543 291.955 361.76 293.06C361.976 294.165 361.938 295.343 361.652 296.414C361.366 297.485 360.848 298.392 360.175 298.996Z" fill="#DBDBDB"/>
<path d="M358.265 295.511C358.877 295.511 359.373 294.791 359.373 293.902C359.373 293.013 358.877 292.293 358.265 292.293C357.653 292.293 357.157 293.013 357.157 293.902C357.157 294.791 357.653 295.511 358.265 295.511Z" fill="white"/>
<path d="M360.175 298.335V298.996C359.601 299.516 358.938 299.792 358.261 299.792C357.585 299.792 356.922 299.516 356.348 298.996V298.335C356.377 297.626 356.591 296.961 356.947 296.474C357.302 295.987 357.773 295.716 358.261 295.716C358.75 295.716 359.22 295.987 359.576 296.474C359.932 296.961 360.146 297.626 360.175 298.335Z" fill="white"/>
<path d="M396.178 289.529H366.457V292.293H396.178V289.529Z" fill="#EBEBEB"/>
<path d="M404.403 294.139H366.457V295.975H404.403V294.139Z" fill="#EBEBEB"/>
<path d="M379.38 297.673H366.457V299.51H379.38V297.673Z" fill="#EBEBEB"/>
<path d="M415.532 304.159H350.379V320.34H415.532V304.159Z" fill="#EBEBEB"/>
<path d="M368.469 320.35H358.312C358.686 318.828 359.374 317.511 360.283 316.58C361.193 315.649 362.278 315.149 363.39 315.149C364.503 315.149 365.588 315.649 366.497 316.58C367.407 317.511 368.095 318.828 368.469 320.35Z" fill="#DBDBDB"/>
<path d="M354.757 271.818C354.656 271.216 354.681 270.585 354.827 270.004C354.973 269.422 355.235 268.917 355.579 268.551C355.923 268.186 356.334 267.977 356.759 267.951C357.185 267.924 357.607 268.082 357.971 268.404C358.335 268.725 358.625 269.197 358.805 269.758C358.985 270.319 359.046 270.945 358.981 271.557C358.915 272.169 358.727 272.738 358.438 273.194C358.15 273.65 357.775 273.972 357.361 274.118C357.086 274.217 356.8 274.235 356.52 274.173C356.24 274.11 355.972 273.968 355.73 273.754C355.488 273.541 355.277 273.26 355.11 272.927C354.943 272.595 354.823 272.218 354.757 271.818Z" fill="#EBEBEB"/>
<path fill-rule="evenodd" clip-rule="evenodd" d="M356.558 272.321C356.497 272.272 356.45 272.193 356.375 272.203C356.3 272.213 356.375 272.203 356.375 272.153V270.9C356.37 270.89 356.367 270.877 356.367 270.865C356.367 270.853 356.37 270.841 356.375 270.831C356.592 270.673 356.687 270.357 356.823 270.08C356.895 269.941 356.946 269.781 356.973 269.611C357 269.441 357.002 269.264 356.98 269.093C356.98 269.004 356.98 268.965 357.061 268.945C357.09 268.928 357.122 268.925 357.151 268.938C357.181 268.95 357.207 268.977 357.225 269.014C357.289 269.186 357.33 269.373 357.347 269.567C357.36 269.721 357.36 269.877 357.347 270.031C357.347 270.149 357.313 270.258 357.299 270.376C357.286 270.495 357.34 270.376 357.36 270.376H358.088C358.19 270.376 358.244 270.376 358.258 270.515C358.265 270.576 358.258 270.639 358.239 270.694C358.219 270.749 358.188 270.794 358.149 270.821C358.149 270.821 358.101 270.821 358.101 270.87C358.101 270.919 358.101 270.87 358.149 270.919C358.197 270.969 358.217 271.186 358.149 271.295C358.081 271.403 358.081 271.295 358.081 271.354C358.081 271.413 358.122 271.354 358.142 271.433C358.158 271.462 358.168 271.495 358.173 271.531C358.178 271.567 358.178 271.605 358.171 271.64C358.164 271.675 358.152 271.708 358.135 271.736C358.119 271.763 358.098 271.784 358.074 271.798H358.027C358.027 271.798 358.027 271.798 358.027 271.847C358.051 271.864 358.072 271.891 358.086 271.924C358.101 271.957 358.109 271.996 358.109 272.035C358.109 272.074 358.101 272.113 358.086 272.146C358.072 272.179 358.051 272.206 358.027 272.223C357.985 272.242 357.94 272.242 357.898 272.223H356.755C356.751 272.252 356.741 272.28 356.727 272.302C356.713 272.325 356.696 272.342 356.676 272.352C356.656 272.362 356.635 272.364 356.614 272.359C356.594 272.353 356.574 272.341 356.558 272.321Z" fill="white"/>
<path fill-rule="evenodd" clip-rule="evenodd" d="M355.471 271.591C355.471 271.324 355.471 271.058 355.471 270.791C355.471 270.742 355.471 270.712 355.525 270.712C355.743 270.712 355.967 270.712 356.205 270.712C356.246 270.712 356.252 270.712 356.252 270.791V272.39C356.252 272.459 356.252 272.479 356.191 272.479H355.545C355.491 272.479 355.484 272.479 355.484 272.38C355.478 272.163 355.471 271.857 355.471 271.591Z" fill="white"/>
<path d="M359.284 271.818C359.184 271.217 359.208 270.586 359.355 270.005C359.501 269.424 359.762 268.919 360.106 268.554C360.45 268.189 360.86 267.98 361.286 267.953C361.711 267.926 362.132 268.083 362.496 268.404C362.861 268.725 363.151 269.195 363.331 269.756C363.511 270.316 363.573 270.941 363.509 271.553C363.444 272.164 363.257 272.734 362.97 273.191C362.682 273.647 362.308 273.97 361.895 274.118C361.619 274.218 361.333 274.238 361.052 274.176C360.772 274.115 360.502 273.973 360.259 273.759C360.016 273.545 359.805 273.263 359.638 272.93C359.471 272.597 359.351 272.219 359.284 271.818Z" fill="#FFC727"/>
<path d="M362.48 271.472C362.48 271.896 362.364 272.303 362.157 272.603C361.951 272.903 361.67 273.072 361.378 273.072C361.086 273.072 360.806 272.903 360.6 272.603C360.393 272.303 360.277 271.896 360.277 271.472C360.207 271.323 360.159 271.153 360.138 270.975C360.117 270.797 360.122 270.614 360.154 270.439C360.185 270.264 360.242 270.101 360.321 269.961C360.4 269.82 360.498 269.706 360.61 269.626C361.222 269.36 361.378 270.91 361.378 270.91C361.378 270.91 361.535 269.36 362.153 269.626C362.582 269.814 362.752 270.673 362.48 271.472Z" fill="white"/>
<path d="M397.429 270.673H366.817V272.479H397.429V270.673Z" fill="#EBEBEB"/>
<path d="M350.379 281.463L358.523 281.285L366.667 281.187L382.955 281.098L399.243 281.187L407.387 281.285L415.532 281.463L407.387 281.651L399.243 281.749L382.955 281.838L366.667 281.749L358.523 281.651L350.379 281.463Z" fill="#EBEBEB"/>
<path d="M252.507 366.987C251.998 364.894 225.682 316.519 223.915 315.651C223.718 315.532 212.44 327.715 212.44 327.715C211.977 328.643 190.115 322.621 190.115 322.621L190.448 360.757L230.074 358.329C230.074 358.329 235.512 362.741 240.448 366.315C242.554 367.959 244.729 369.41 246.96 370.659C248.966 371.32 253.024 369.06 252.507 366.987Z" fill="#EB9481"/>
<path d="M246.974 370.639C244.744 369.391 242.572 367.94 240.468 366.295C235.519 362.722 230.094 358.309 230.094 358.309L221.257 358.852L206.981 326.895C210.026 327.586 212.29 327.981 212.419 327.685C212.419 327.685 223.69 315.512 223.894 315.631C225.662 316.519 251.977 364.894 252.487 366.967C252.997 369.04 248.966 371.33 246.974 370.639Z" fill="white"/>
<path d="M252.732 367.036C252.195 364.904 225.764 316.559 223.949 315.641C223.269 315.285 217.735 320.478 212.426 327.695L229.489 358.822C229.489 358.822 244.989 370.156 247.049 370.856C249.108 371.557 253.276 369.178 252.732 367.036Z" fill="#FFC727"/>
<path d="M251.032 367.924C246.464 360.027 228.558 327.3 224.458 318.948C224.424 318.879 224.458 318.839 224.458 318.948C229.102 326.678 246.831 359.563 251.086 367.855C251.216 367.924 251.127 368.053 251.032 367.924Z" fill="#263238"/>
<path d="M244.166 369.129C243.656 368.246 243.278 367.219 243.055 366.113C242.833 365.006 242.771 363.845 242.875 362.702C243.048 360.647 243.762 358.769 244.866 357.46C244.9 357.46 244.948 357.509 244.914 357.559C243.959 359.107 243.376 361.063 243.253 363.134C243.131 365.205 243.475 367.278 244.234 369.04C244.268 369.109 244.2 369.188 244.166 369.129Z" fill="#263238"/>
<path d="M231.454 360.728C229.646 357.519 228.381 352.83 229.108 348.723C229.108 348.565 229.292 348.624 229.306 348.723C229.834 352.738 230.657 356.66 231.76 360.422C231.788 360.48 231.798 360.553 231.789 360.623C231.78 360.694 231.753 360.756 231.712 360.797C231.672 360.837 231.622 360.853 231.573 360.84C231.525 360.827 231.482 360.786 231.454 360.728Z" fill="#263238"/>
<path d="M233.493 362.455C231.691 359.247 230.42 354.557 231.148 350.451C231.148 350.293 231.331 350.352 231.352 350.451C231.875 354.467 232.695 358.389 233.799 362.149C233.827 362.208 233.838 362.281 233.829 362.351C233.82 362.421 233.792 362.484 233.751 362.524C233.731 362.544 233.709 362.559 233.685 362.566C233.661 362.573 233.636 362.574 233.612 362.567C233.564 362.555 233.521 362.514 233.493 362.455Z" fill="#263238"/>
<path d="M235.533 364.183C233.731 360.974 232.467 356.285 233.187 352.178C233.187 352.02 233.371 352.079 233.391 352.178C233.919 356.193 234.739 360.115 235.839 363.877C235.866 363.936 235.877 364.008 235.868 364.079C235.859 364.149 235.832 364.211 235.791 364.252C235.75 364.293 235.7 364.308 235.652 364.295C235.603 364.282 235.561 364.242 235.533 364.183Z" fill="#263238"/>
<path d="M237.579 365.95C235.77 362.741 234.506 358.052 235.227 353.945C235.227 353.787 235.41 353.847 235.43 353.945C235.957 357.961 236.78 361.884 237.885 365.644C237.913 365.703 237.923 365.775 237.914 365.846C237.905 365.916 237.878 365.979 237.837 366.019C237.817 366.039 237.794 366.053 237.77 366.061C237.747 366.068 237.722 366.069 237.698 366.062C237.65 366.049 237.607 366.009 237.579 365.95Z" fill="#263238"/>
<path d="M220.284 327.083C218.299 323.43 222.201 318.958 224.186 322.611C226.172 326.263 222.269 330.736 220.284 327.083Z" fill="#263238"/>
<path d="M230.543 367.066C231.141 363.521 230.658 359.73 230.495 356.147C230.487 356.069 230.466 355.994 230.435 355.93C230.403 355.866 230.361 355.813 230.313 355.776C230.264 355.74 230.211 355.72 230.156 355.72C230.102 355.719 230.048 355.737 229.999 355.772C229.991 355.759 229.982 355.749 229.971 355.742C229.961 355.735 229.949 355.732 229.938 355.732C229.926 355.732 229.915 355.735 229.904 355.742C229.894 355.749 229.884 355.759 229.877 355.772C227.966 358.374 226.56 361.659 225.798 365.298C225.383 367.431 225.594 370.56 227.429 371.123C229.265 371.686 230.196 369.139 230.543 367.066ZM228.775 369.346C226.165 371.834 226.294 366.493 226.648 364.943C226.883 363.927 227.169 362.937 227.504 361.981C228.208 360.044 228.98 358.159 229.816 356.334C229.816 358.102 229.931 359.849 229.979 361.606C230.04 363.748 230.21 367.984 228.775 369.346Z" fill="#263238"/>
<path d="M222.14 345.87C220.821 347.844 221.828 350.589 222.99 352.03C225.011 354.463 227.438 356.077 230.026 356.71C230.087 356.71 230.114 356.66 230.114 356.591C230.169 356.583 230.222 356.556 230.268 356.512C230.314 356.468 230.352 356.409 230.379 356.34C230.407 356.27 230.422 356.192 230.424 356.112C230.427 356.032 230.416 355.953 230.393 355.88C229.17 352.761 228.129 349.216 226.314 346.739C225.227 345.287 223.405 344.043 222.14 345.87ZM227.871 351.704C228.503 353.215 229.074 354.765 229.734 356.246C228.374 355.327 226.974 354.498 225.655 353.383C225.019 352.857 224.408 352.27 223.826 351.625C222.943 350.638 220.815 346.255 223.935 346.245C225.675 346.205 227.144 349.908 227.885 351.704H227.871Z" fill="#263238"/>
<path d="M188.83 313.528L170.958 311.485C170.958 311.485 145.125 300.625 130.224 306.302C113.12 312.827 110.706 341.842 128.096 353.471C145.322 364.963 221.032 360.737 221.032 360.737L204.798 325.819C204.798 325.819 179.863 317.319 158.035 319.047L188.939 324.21L188.83 313.528Z" fill="#37474F"/>
<path d="M188.646 320.913C185.988 320.281 183.296 319.925 180.618 319.6C177.939 319.274 175.179 318.948 172.46 318.701C167.05 318.188 161.625 318.069 156.206 318.346C155.696 318.346 155.193 318.415 154.683 318.464C154.574 318.419 154.463 318.383 154.35 318.356C154.092 318.267 153.827 318.178 153.568 318.119C153.072 318 152.583 317.911 152.086 317.813C151.06 317.615 150.047 317.487 149.007 317.24C148.946 317.24 148.918 317.368 149.007 317.378C150.04 317.684 151.046 318.079 152.086 318.366L152.977 318.612C150.992 318.82 149.014 319.106 147.035 319.432C146.974 319.432 146.974 319.58 147.035 319.57C149.755 319.254 152.474 319.146 155.152 319.136C157.831 319.126 160.516 319.136 163.201 319.264C168.64 319.55 174.078 320.093 179.462 320.755C182.494 321.12 185.54 321.574 188.585 321.663C188.884 321.683 188.945 320.982 188.646 320.913Z" fill="#263238"/>
<path d="M213.303 359.938C212.303 357.716 211.44 355.337 210.522 353.027L207.749 346.117C205.9 341.526 199.278 326.105 198.633 325.029C198.592 324.96 198.51 325.029 198.531 325.128C198.85 326.323 202.99 336.54 203.969 338.821C205.872 343.372 207.871 347.834 209.836 352.326C210.4 353.61 210.978 354.883 211.549 356.157C212.12 357.43 212.725 358.684 213.248 359.997C213.228 360.096 213.303 360.027 213.303 359.938Z" fill="#263238"/>
<path d="M124.364 374.016C124.806 371.893 149.517 321.771 151.25 320.755C151.447 320.626 163.113 332.009 163.113 332.009C163.602 332.907 185.241 325.395 185.241 325.395L186.152 363.511L146.492 363.808C146.492 363.808 141.223 368.586 136.39 372.505C134.338 374.289 132.213 375.888 130.027 377.293C128.042 378.113 123.915 376.128 124.364 374.016Z" fill="#EB9481"/>
<path d="M130.013 377.293C132.199 375.892 134.321 374.293 136.369 372.505C141.196 368.556 146.471 363.808 146.471 363.808L155.308 363.748L168.531 330.844C165.512 331.743 163.262 332.295 163.092 332.009C163.092 332.009 151.427 320.617 151.23 320.755C149.496 321.742 124.785 371.893 124.343 374.016C123.901 376.138 128.041 378.113 130.013 377.293Z" fill="white"/>
<path d="M124.133 374.095C124.595 371.923 149.428 321.772 151.203 320.784C151.882 320.38 157.572 325.187 163.113 332.019L147.076 364.301C147.076 364.301 131.971 376.681 129.931 377.52C127.892 378.36 123.67 376.267 124.133 374.095Z" fill="#FFC727"/>
<path d="M125.873 374.835C130.176 366.582 146.994 332.72 150.822 324.082C150.822 324.013 150.822 323.983 150.781 324.082C146.396 332.118 129.761 366.187 125.778 374.766C125.689 374.894 125.778 374.993 125.873 374.835Z" fill="#263238"/>
<path d="M132.773 375.585C133.252 374.668 133.595 373.616 133.78 372.496C133.964 371.376 133.987 370.213 133.847 369.08C133.618 367.046 132.859 365.218 131.726 363.976C131.726 363.976 131.645 364.035 131.672 364.084C132.677 365.564 133.323 367.478 133.514 369.538C133.706 371.598 133.431 373.693 132.732 375.506C132.731 375.515 132.732 375.525 132.733 375.534C132.735 375.543 132.737 375.551 132.741 375.558C132.745 375.566 132.75 375.572 132.755 375.577C132.761 375.581 132.767 375.584 132.773 375.585Z" fill="#263238"/>
<path d="M145.193 366.315C146.893 362.988 148.008 358.24 147.144 354.172C147.144 354.014 146.961 354.083 146.947 354.222C146.56 358.265 145.876 362.236 144.908 366.068C144.901 366.12 144.905 366.174 144.92 366.222C144.935 366.27 144.96 366.31 144.991 366.337C145.022 366.364 145.058 366.376 145.094 366.373C145.131 366.369 145.165 366.349 145.193 366.315Z" fill="#263238"/>
<path d="M143.208 368.181C144.908 364.854 146.022 360.106 145.166 356.038C145.166 355.88 144.976 355.949 144.962 356.088C144.575 360.131 143.891 364.102 142.923 367.934C142.916 367.986 142.92 368.04 142.935 368.088C142.95 368.136 142.975 368.176 143.006 368.203C143.037 368.23 143.073 368.242 143.109 368.238C143.145 368.234 143.18 368.214 143.208 368.181Z" fill="#263238"/>
<path d="M141.243 370.047C142.936 366.72 144.051 361.971 143.194 357.904C143.16 357.746 143.011 357.815 142.997 357.904C142.607 361.946 141.923 365.917 140.958 369.751C140.937 369.806 140.931 369.87 140.941 369.931C140.95 369.992 140.975 370.046 141.01 370.082C141.045 370.119 141.088 370.135 141.131 370.129C141.174 370.122 141.214 370.093 141.243 370.047Z" fill="#263238"/>
<path d="M139.245 371.923C140.944 368.586 142.059 363.837 141.196 359.77C141.196 359.612 141.012 359.681 140.999 359.819C140.612 363.863 139.928 367.834 138.959 371.666C138.951 371.719 138.953 371.774 138.968 371.824C138.982 371.874 139.006 371.916 139.038 371.944C139.07 371.973 139.107 371.986 139.144 371.982C139.181 371.978 139.216 371.957 139.245 371.923Z" fill="#263238"/>
<path d="M155.254 331.95C157.117 328.169 153.072 323.963 151.209 327.744C149.347 331.525 153.385 335.731 155.254 331.95Z" fill="#263238"/>
<path d="M149.571 376.405C151.386 375.723 151.495 372.584 151.005 370.481C150.123 366.892 148.603 363.704 146.6 361.241C146.553 361.182 146.512 361.241 146.485 361.241C146.434 361.21 146.379 361.196 146.324 361.201C146.269 361.206 146.216 361.23 146.168 361.27C146.121 361.31 146.08 361.366 146.05 361.433C146.02 361.5 146.001 361.576 145.995 361.655C145.955 365.239 145.594 369.06 146.308 372.564C146.723 374.638 147.851 377.056 149.571 376.405ZM146.682 367.135C146.682 365.377 146.723 363.62 146.682 361.863C147.576 363.625 148.407 365.454 149.17 367.342C149.533 368.261 149.853 369.214 150.129 370.195C150.53 371.725 150.808 377.046 148.143 374.756C146.682 373.482 146.682 369.237 146.682 367.135Z" fill="#263238"/>
<path d="M149.884 351.991C148.123 354.597 147.198 358.21 146.084 361.409C146.063 361.483 146.055 361.563 146.06 361.642C146.065 361.721 146.082 361.798 146.112 361.865C146.141 361.933 146.181 361.989 146.228 362.03C146.275 362.071 146.328 362.095 146.383 362.1C146.381 362.117 146.383 362.134 146.387 362.15C146.391 362.166 146.398 362.18 146.406 362.191C146.415 362.203 146.425 362.211 146.436 362.216C146.448 362.221 146.46 362.221 146.471 362.218C149.035 361.404 151.408 359.627 153.351 357.065C154.459 355.545 155.39 352.701 153.997 350.855C152.603 349.009 150.91 350.47 149.884 351.991ZM152.209 351.339C155.322 351.142 153.337 355.633 152.487 356.71C151.928 357.392 151.337 358.018 150.72 358.585C149.434 359.728 148.109 360.776 146.75 361.725C147.362 360.204 147.885 358.615 148.463 357.065C149.15 355.219 150.489 351.448 152.209 351.339Z" fill="#263238"/>
<path d="M186.226 313.627L204.017 312.946C204.017 312.946 222.372 299.233 237.477 303.893C254.771 309.224 257.545 340.489 244.9 352.07C228.884 366.74 156.41 366.809 156.41 366.809L171.366 327.675C171.366 327.675 195.315 319.382 217.178 319.61L186.471 326.895L186.226 313.627Z" fill="#37474F"/>
<path d="M170.36 330.232C170.377 330.169 170.389 330.102 170.394 330.035V329.867L170.455 329.492C170.502 329.235 170.563 328.988 170.625 328.731C170.686 328.475 170.761 328.238 170.829 327.991C170.912 327.751 171.007 327.52 171.114 327.3C171.114 327.3 171.114 327.3 171.155 327.251H171.189H171.23C173.867 326.431 191.794 321.999 194.465 321.456C197.137 320.913 199.85 320.468 202.555 320.004C207.941 319.116 213.355 318.622 218.775 318.523C219.285 318.523 219.795 318.523 220.305 318.523C220.412 318.47 220.521 318.427 220.631 318.395C220.89 318.296 221.148 318.188 221.406 318.109C221.896 317.951 222.385 317.823 222.875 317.694C223.894 317.428 224.914 317.23 225.934 316.914C225.995 316.914 226.022 317.033 225.934 317.053C224.914 317.428 223.894 317.892 222.895 318.257L222.011 318.563C224.003 318.642 225.988 318.79 227.98 318.978C227.993 318.978 228.005 318.985 228.014 318.998C228.023 319.011 228.028 319.028 228.028 319.047C228.028 319.065 228.023 319.083 228.014 319.096C228.005 319.109 227.993 319.116 227.98 319.116C225.261 318.987 222.542 319.066 219.856 319.234C217.171 319.402 214.499 319.59 211.821 319.925C206.382 320.577 201.012 321.495 195.628 322.522C192.61 323.104 174.33 327.695 171.291 328.001H171.25C171.231 328.106 171.206 328.208 171.175 328.307L170.931 329.028C170.849 329.255 170.767 329.482 170.672 329.709L170.529 330.035L170.455 330.193C170.455 330.242 170.387 330.311 170.38 330.36C170.373 330.41 170.326 330.321 170.36 330.232Z" fill="#263238"/>
<path d="M162.011 364.282C162.943 361.991 163.724 359.563 164.567 357.203L167.11 350.115C168.809 345.406 174.921 329.541 175.533 328.396C175.567 328.327 175.655 328.396 175.635 328.485C175.356 329.709 171.556 340.193 170.679 342.533C168.925 347.212 167.076 351.813 165.24 356.433C164.724 357.756 164.18 359.059 163.656 360.382C163.133 361.705 162.569 362.988 162.086 364.331C162.087 364.343 162.086 364.355 162.082 364.366C162.079 364.377 162.073 364.387 162.067 364.394C162.06 364.401 162.052 364.406 162.043 364.407C162.035 364.408 162.027 364.406 162.019 364.401C162.011 364.396 162.005 364.388 162 364.378C161.995 364.368 161.992 364.357 161.991 364.344C161.991 364.332 161.992 364.32 161.996 364.309C161.999 364.298 162.004 364.289 162.011 364.282Z" fill="#263238"/>
<path d="M221.875 208.862L218.129 238.311C217.953 239.18 218.279 239.851 218.857 239.792L229.156 238.805C229.468 238.739 229.761 238.547 230.002 238.25C230.242 237.953 230.42 237.564 230.515 237.127L234.261 207.678C234.438 206.809 234.112 206.147 233.534 206.197L223.241 207.184C222.928 207.249 222.634 207.441 222.392 207.738C222.151 208.035 221.971 208.425 221.875 208.862Z" fill="#37474F"/>
<path d="M223.099 208.734L219.353 238.183C219.177 239.052 219.503 239.723 220.074 239.664L230.373 238.677C230.686 238.612 230.979 238.42 231.22 238.123C231.46 237.826 231.638 237.436 231.733 236.998L235.485 207.549C235.662 206.681 235.336 206.009 234.758 206.068L224.459 207.056C224.147 207.123 223.854 207.316 223.613 207.612C223.373 207.909 223.195 208.298 223.099 208.734Z" fill="#455A64"/>
<path d="M225.981 209.79C225.989 210.042 225.945 210.292 225.856 210.508C225.766 210.724 225.634 210.896 225.476 211.002C225.319 211.109 225.143 211.146 224.972 211.107C224.8 211.069 224.64 210.957 224.512 210.787C224.384 210.616 224.294 210.394 224.253 210.149C224.212 209.904 224.222 209.647 224.282 209.41C224.342 209.173 224.448 208.968 224.589 208.819C224.729 208.671 224.897 208.586 225.07 208.576C225.302 208.563 225.528 208.683 225.698 208.91C225.869 209.138 225.971 209.454 225.981 209.79Z" fill="#263238"/>
<path d="M190.618 255.844C197.137 273.407 211.121 295.778 216.546 295.442C219.122 295.284 223.758 295.807 226.974 291.237C233.996 281.266 239.482 262.814 240.352 252.438C240.658 248.756 228.116 241.816 226.423 244.936C222.453 252.251 218.055 266.319 217.3 266.299C214.513 266.21 203.174 253.969 195.254 245.35C185.642 234.876 188.021 248.845 190.618 255.844Z" fill="#EB9481"/>
<path d="M239.931 233.533C238.354 226.218 237.178 224.648 238.102 217.491C238.707 212.762 236.892 210.175 234.758 214.095C231.27 220.512 231.943 230.571 232.868 233.968L239.931 233.533Z" fill="#EB9481"/>
<path d="M239.877 255.677C239.877 255.677 241.76 245.153 240.611 237.117C239.815 231.559 237.157 219.742 226.111 214.282C223.487 212.989 219.122 213.848 222.875 218.231C225.54 221.341 227.871 222.18 229.197 224.362C229.197 224.362 223.758 226.396 222.943 230.285C222.25 233.655 221.725 237.093 221.372 240.572C221.796 240.811 222.229 241.009 222.671 241.164C222.671 241.164 221.991 244.817 224.03 249.753L239.877 255.677Z" fill="#EB9481"/>
<path d="M239.265 231.983C237.633 230.186 234.125 226.465 230.529 224.865C226.532 223.098 218.51 221.242 217.613 225.537C216.974 228.696 219.992 229.791 219.992 229.791C219.992 229.791 216.593 230.038 216.416 233.069C216.28 235.833 218.653 236.475 218.653 236.475C218.653 236.475 216.613 237.146 216.817 239.841C217.083 243.08 221.358 241.145 223.615 244.087C224.112 244.748 239.265 231.983 239.265 231.983Z" fill="#EB9481"/>
<path d="M229.945 231.312C226.851 229.343 223.418 228.785 220.101 229.713C220.019 229.713 219.992 229.851 220.067 229.841C223.393 229.77 226.712 230.287 229.951 231.381L229.945 231.312Z" fill="#263238"/>
<path d="M228.592 237.117C227.021 236.199 222.385 234.905 218.687 236.366C218.599 236.366 218.578 236.505 218.687 236.495C222.002 236.175 225.332 236.404 228.612 237.176L228.592 237.117Z" fill="#263238"/>
<path d="M240.754 259.961C240.754 259.961 231.801 289.529 226.097 293.32C220.393 297.111 216.872 296.656 214.69 296.35C213.842 296.132 213.036 295.647 212.331 294.929C206.213 289.302 194.887 268.58 190.156 256.802C186.607 247.917 186.655 239.674 191.61 241.944C193.293 242.833 194.862 244.121 196.254 245.755C205.594 255.914 216.355 265.44 216.838 265.026C217.321 264.611 222.005 252.389 222.005 252.389L240.754 259.961Z" fill="#FFC727"/>
<path d="M217.654 271.176C217.59 271.831 217.59 272.496 217.654 273.151C217.72 273.835 217.858 274.501 218.061 275.125C218.128 274.47 218.128 273.805 218.061 273.151C217.995 272.466 217.857 271.801 217.654 271.176Z" fill="white"/>
<path d="M229.34 278.531C229.276 279.186 229.276 279.851 229.34 280.505C229.402 281.165 229.525 281.809 229.707 282.421C229.774 281.766 229.774 281.101 229.707 280.446C229.65 279.785 229.526 279.14 229.34 278.531Z" fill="white"/>
<path d="M208.741 285.669C208.678 286.324 208.678 286.988 208.741 287.643C208.797 288.304 208.921 288.95 209.108 289.558C209.172 288.903 209.172 288.239 209.108 287.584C209.045 286.925 208.922 286.28 208.741 285.669Z" fill="white"/>
<path d="M203.106 256.624C202.991 257.966 203.122 259.329 203.486 260.573C203.55 259.918 203.55 259.254 203.486 258.599C203.423 257.918 203.295 257.254 203.106 256.624Z" fill="white"/>
<path d="M201.257 268.52C201.708 268.612 202.165 268.612 202.616 268.52C203.072 268.439 203.516 268.259 203.935 267.987C203.484 267.895 203.026 267.895 202.575 267.987C202.121 268.079 201.678 268.258 201.257 268.52Z" fill="white"/>
<path d="M225.104 271.965C225.555 272.057 226.013 272.057 226.464 271.965C226.918 271.875 227.362 271.696 227.783 271.433C227.332 271.335 226.874 271.335 226.423 271.433C225.968 271.515 225.523 271.694 225.104 271.965Z" fill="white"/>
<path d="M212.99 282.351C213.441 282.443 213.899 282.443 214.35 282.351C214.805 282.27 215.25 282.09 215.669 281.818C214.744 281.66 213.807 281.854 212.949 282.38L212.99 282.351Z" fill="white"/>
<path d="M236.029 261.767C236.48 261.859 236.937 261.859 237.388 261.767C237.844 261.686 238.288 261.506 238.707 261.235C237.783 261.076 236.845 261.27 235.988 261.797L236.029 261.767Z" fill="white"/>
<path d="M224.227 292.035C224.678 292.127 225.136 292.127 225.587 292.035C226.042 291.954 226.487 291.775 226.906 291.503C226.455 291.405 225.997 291.405 225.546 291.503C225.091 291.585 224.646 291.765 224.227 292.035Z" fill="white"/>
<path d="M189.177 242.922C188.802 243.162 188.406 243.328 188 243.414C188.058 243.225 188.131 243.046 188.218 242.882C188.537 242.836 188.859 242.85 189.177 242.922Z" fill="white"/>
<path d="M211.841 263.959C211.479 264.368 211.156 264.846 210.883 265.381C210.601 265.911 210.372 266.496 210.203 267.119C210.929 266.292 211.491 265.203 211.834 263.959H211.841Z" fill="white"/>
<path d="M223.051 280.486C222.687 280.895 222.364 281.377 222.093 281.917C221.812 282.445 221.584 283.026 221.413 283.645C221.777 283.239 222.1 282.761 222.371 282.223C222.653 281.693 222.882 281.108 223.051 280.486Z" fill="white"/>
<path d="M229.421 258.579C229.057 258.985 228.734 259.463 228.463 260.001C228.181 260.531 227.952 261.115 227.783 261.738C228.147 261.329 228.47 260.847 228.741 260.307C229.022 259.779 229.25 259.198 229.421 258.579Z" fill="white"/>
<path d="M204.765 278.422C204.402 278.834 204.079 279.316 203.806 279.854C203.526 280.382 203.297 280.963 203.126 281.582C203.491 281.176 203.813 280.697 204.085 280.16C204.369 279.632 204.598 279.047 204.765 278.422Z" fill="white"/>
<path d="M196.308 250.622C195.943 251.027 195.621 251.506 195.349 252.044C195.065 252.571 194.836 253.156 194.669 253.781C195.395 252.955 195.958 251.865 196.301 250.622H196.308Z" fill="white"/>
<path d="M195.784 264.266C195.503 263.736 195.171 263.267 194.799 262.874C194.437 262.463 194.036 262.13 193.609 261.886C193.884 262.42 194.215 262.889 194.588 263.278C194.951 263.691 195.354 264.023 195.784 264.266Z" fill="white"/>
<path d="M235.397 270.722C235.116 270.195 234.786 269.727 234.418 269.33C234.053 268.921 233.65 268.588 233.221 268.343C233.502 268.87 233.832 269.338 234.2 269.735C234.565 270.144 234.968 270.476 235.397 270.722Z" fill="white"/>
<path d="M223.208 265.401C222.927 264.874 222.597 264.406 222.229 264.009C221.866 263.596 221.462 263.263 221.032 263.022C221.601 264.076 222.352 264.893 223.208 265.391V265.401Z" fill="white"/>
<path d="M209.782 276.32C209.504 275.788 209.174 275.319 208.803 274.928C208.441 274.511 208.038 274.178 207.606 273.94C207.89 274.467 208.221 274.936 208.592 275.332C208.955 275.739 209.356 276.072 209.782 276.32Z" fill="white"/>
<path d="M217.858 292.599C217.578 292.07 217.249 291.601 216.879 291.207C216.514 290.798 216.111 290.465 215.682 290.22C215.964 290.749 216.296 291.218 216.668 291.612C217.031 292.019 217.432 292.351 217.858 292.599Z" fill="white"/>
<path d="M212.331 294.929C206.213 289.302 194.887 268.58 190.156 256.802C186.607 247.917 186.655 239.674 191.61 241.944C194.364 248.904 206.383 279.35 212.331 294.929Z" fill="#263238"/>
<path d="M238.456 265.401C237.776 264.917 231.345 261.857 229.938 261.235C228.531 260.613 222.807 258.007 221.318 257.543C221.312 257.539 221.305 257.538 221.298 257.538C221.292 257.539 221.285 257.541 221.279 257.545C221.273 257.549 221.268 257.555 221.263 257.562C221.259 257.57 221.255 257.578 221.253 257.587C221.251 257.596 221.25 257.606 221.25 257.615C221.251 257.625 221.252 257.634 221.255 257.643C221.258 257.652 221.262 257.66 221.267 257.666C221.272 257.673 221.278 257.678 221.284 257.681C222.684 258.54 228.456 261.205 229.883 261.876C231.311 262.548 237.708 265.371 238.435 265.539C238.51 265.549 238.517 265.43 238.456 265.401Z" fill="#263238"/>
<path d="M205.859 314.446C205.213 315.433 163.63 317.408 163.419 317.033C162.841 316.046 167.96 277.603 172.216 262.893C177.654 244.037 180.781 242.3 182.644 241.174C185.016 239.713 189.36 239.99 190.414 240.612C191.61 241.303 196.831 249.645 198.422 256.407C201.617 270.011 206.423 313.548 205.859 314.446Z" fill="#FFC727"/>
<path d="M187.545 251.965C187.436 253.307 187.569 254.669 187.933 255.914C187.997 255.259 187.997 254.594 187.933 253.939C187.874 253.256 187.743 252.59 187.545 251.965Z" fill="white"/>
<path d="M187.899 280.792C187.784 282.134 187.915 283.496 188.279 284.741C188.343 284.086 188.343 283.421 188.279 282.766C188.216 282.085 188.088 281.421 187.899 280.792Z" fill="white"/>
<path d="M164.255 310.942C164.147 312.284 164.281 313.645 164.642 314.891C164.706 314.236 164.706 313.571 164.642 312.916C164.582 312.233 164.452 311.568 164.255 310.942Z" fill="white"/>
<path d="M181.291 312.136C181.227 312.791 181.227 313.456 181.291 314.111C181.352 314.775 181.478 315.423 181.665 316.036C181.728 315.381 181.728 314.716 181.665 314.061C181.607 313.396 181.481 312.747 181.291 312.136Z" fill="white"/>
<path d="M195.315 298.818C195.252 299.473 195.252 300.138 195.315 300.793C195.371 301.454 195.495 302.1 195.682 302.708C195.746 302.053 195.746 301.389 195.682 300.734C195.622 300.073 195.499 299.429 195.315 298.818Z" fill="white"/>
<path d="M175.315 269.202C175.252 269.857 175.252 270.521 175.315 271.176C175.371 271.838 175.495 272.483 175.682 273.091C175.75 272.437 175.75 271.771 175.682 271.117C175.626 270.456 175.502 269.81 175.315 269.202Z" fill="white"/>
<path d="M173.303 294.593C173.24 295.248 173.24 295.913 173.303 296.568C173.366 297.227 173.489 297.871 173.67 298.483C173.787 297.141 173.655 295.778 173.29 294.534L173.303 294.593Z" fill="white"/>
<path d="M198.286 274.474C198.222 275.128 198.222 275.793 198.286 276.448C198.348 277.107 198.472 277.752 198.653 278.363C198.72 277.709 198.72 277.043 198.653 276.389C198.596 275.728 198.473 275.082 198.286 274.474Z" fill="white"/>
<path d="M183.521 264.156C183.971 264.249 184.429 264.249 184.88 264.156C185.338 264.075 185.785 263.896 186.206 263.624C185.281 263.452 184.341 263.646 183.487 264.186L183.521 264.156Z" fill="white"/>
<path d="M173.493 283.17C174.418 283.329 175.355 283.135 176.213 282.608C175.762 282.515 175.304 282.515 174.853 282.608C174.383 282.694 173.924 282.883 173.493 283.17Z" fill="white"/>
<path d="M189.367 293.951C189.818 294.043 190.276 294.043 190.727 293.951C191.181 293.865 191.625 293.686 192.045 293.418C191.594 293.326 191.137 293.326 190.686 293.418C190.232 293.509 189.788 293.688 189.367 293.951Z" fill="white"/>
<path d="M177.586 306.173C178.037 306.265 178.495 306.265 178.946 306.173C179.4 306.082 179.843 305.903 180.264 305.64C179.813 305.548 179.356 305.548 178.905 305.64C178.451 305.732 178.007 305.911 177.586 306.173Z" fill="white"/>
<path d="M200.815 305.837C201.266 305.929 201.724 305.929 202.175 305.837C202.63 305.756 203.075 305.576 203.493 305.305C203.043 305.207 202.584 305.207 202.134 305.305C201.678 305.387 201.234 305.566 200.815 305.837Z" fill="white"/>
<path d="M186.485 243.474C186.936 243.566 187.393 243.566 187.844 243.474C188.301 243.383 188.746 243.204 189.17 242.941C188.719 242.849 188.261 242.849 187.81 242.941C187.353 243.026 186.907 243.206 186.485 243.474Z" fill="white"/>
<path d="M182.304 248.559C181.936 248.965 181.611 249.447 181.338 249.99C181.057 250.517 180.828 251.098 180.659 251.718C181.025 251.315 181.348 250.836 181.617 250.296C181.901 249.767 182.132 249.182 182.304 248.559Z" fill="white"/>
<path d="M191.998 270.11C191.273 270.94 190.708 272.028 190.359 273.269C190.727 272.865 191.05 272.383 191.318 271.838C191.601 271.312 191.83 270.73 191.998 270.11Z" fill="white"/>
<path d="M201.631 291.75C201.268 292.162 200.945 292.643 200.672 293.181C200.39 293.711 200.161 294.296 199.992 294.919C200.357 294.51 200.679 294.028 200.951 293.487C201.235 292.96 201.464 292.375 201.631 291.75Z" fill="white"/>
<path d="M190.917 308.207C190.553 308.612 190.23 309.091 189.958 309.629C189.674 310.156 189.445 310.742 189.279 311.366C189.646 310.966 189.969 310.487 190.237 309.945C190.521 309.417 190.75 308.831 190.917 308.207Z" fill="white"/>
<path d="M168.735 303.073C168.369 303.48 168.046 303.962 167.776 304.505C167.493 305.03 167.264 305.612 167.096 306.233C167.464 305.832 167.787 305.353 168.055 304.811C168.339 304.283 168.568 303.698 168.735 303.073Z" fill="white"/>
<path d="M181.481 287.801C181.118 288.209 180.796 288.687 180.523 289.223C180.241 289.752 180.012 290.337 179.843 290.96C180.205 290.552 180.528 290.074 180.801 289.539C181.084 289.01 181.313 288.425 181.481 287.801Z" fill="white"/>
<path d="M196.308 250.622C195.943 251.027 195.621 251.506 195.349 252.044C195.065 252.571 194.836 253.156 194.669 253.781C195.395 252.955 195.958 251.865 196.301 250.622H196.308Z" fill="white"/>
<path d="M195.784 264.266C195.503 263.736 195.171 263.267 194.799 262.874C194.437 262.463 194.036 262.13 193.609 261.886C193.884 262.42 194.215 262.889 194.588 263.278C194.951 263.691 195.354 264.023 195.784 264.266Z" fill="white"/>
<path d="M168.476 287.623C168.068 287.393 167.683 287.081 167.334 286.695L167.416 286.152L167.491 286.231C167.863 286.625 168.195 287.094 168.476 287.623Z" fill="white"/>
<path d="M197.178 287.159C196.899 286.63 196.569 286.162 196.199 285.767C195.834 285.358 195.431 285.026 195.002 284.78C195.284 285.309 195.616 285.778 195.988 286.172C196.352 286.579 196.752 286.911 197.178 287.159Z" fill="white"/>
<path d="M198.769 315.276C198.485 314.749 198.154 314.28 197.783 313.884C197.42 313.471 197.017 313.138 196.586 312.896C196.87 313.423 197.201 313.892 197.572 314.288C197.937 314.698 198.34 315.03 198.769 315.276Z" fill="white"/>
<path d="M177.586 259.764C177.304 259.223 176.97 258.744 176.593 258.342C176.23 257.93 175.827 257.597 175.397 257.355C175.674 257.886 176.004 258.355 176.376 258.747C176.743 259.169 177.151 259.512 177.586 259.764Z" fill="white"/>
<path d="M185.954 300.793C185.673 300.264 185.341 299.795 184.969 299.401C184.605 298.994 184.205 298.662 183.779 298.414C184.056 298.942 184.383 299.411 184.751 299.806C185.118 300.216 185.523 300.548 185.954 300.793Z" fill="white"/>
<path d="M173.806 314.091C173.527 313.562 173.197 313.093 172.827 312.699C172.464 312.286 172.061 311.954 171.631 311.712C171.908 312.243 172.238 312.712 172.61 313.104C172.974 313.514 173.377 313.846 173.806 314.091Z" fill="white"/>
<path d="M183.466 275.55C183.185 275.023 182.856 274.554 182.487 274.158C182.124 273.745 181.721 273.412 181.291 273.17C181.572 273.697 181.901 274.165 182.27 274.562C182.635 274.972 183.037 275.304 183.466 275.55Z" fill="white"/>
<path d="M175.784 246.337C157.98 266.161 142.651 293.537 144.194 302.116C145.825 311.179 158.293 321.189 169.251 323.114C171.495 323.509 178.279 299.539 175.975 298.433C174.18 297.604 166.022 294.356 165.037 292.747C164.357 291.631 176.811 265.657 180.828 252.132C185.036 238.025 180.55 241.036 175.784 246.337Z" fill="#EB9481"/>
<path d="M171.345 297.831C171.345 297.831 178.198 298.73 182.657 299.628C185.145 300.132 189.36 301.543 191.073 303.123C193.629 305.492 203.31 317.773 201.304 321.238C199.496 324.378 196.702 319.481 196.702 319.481C196.702 319.481 200.101 324.417 197.647 326.727C195.193 329.038 191.957 322.176 191.957 322.176C191.957 322.176 195.818 327.043 193.038 329.156C190.618 330.982 186.328 323.637 186.328 323.637C186.328 323.637 190.767 328.1 188.415 330.331C185.825 332.789 178.435 322.946 178.435 322.946C172.582 323.934 168.973 323.45 164.839 321.821C164.078 321.525 171.345 297.831 171.345 297.831Z" fill="#EB9481"/>
<path d="M192.997 323.805C192.732 323.282 192.453 322.769 192.181 322.245C191.674 321.206 191.12 320.217 190.523 319.284C189.938 318.376 189.326 317.517 188.687 316.687C188.048 315.858 187.287 315.019 186.648 314.111C186.643 314.104 186.637 314.099 186.631 314.096C186.625 314.093 186.618 314.091 186.611 314.092C186.605 314.092 186.598 314.094 186.592 314.099C186.586 314.103 186.581 314.108 186.576 314.116C186.572 314.123 186.568 314.131 186.566 314.14C186.564 314.149 186.563 314.159 186.563 314.168C186.564 314.178 186.565 314.188 186.568 314.196C186.571 314.205 186.575 314.213 186.58 314.219C187.234 315.103 187.851 316.043 188.429 317.033C189.02 317.971 189.598 318.918 190.183 319.866C190.767 320.814 191.359 321.653 191.943 322.561C192.236 323.006 192.514 323.479 192.793 323.943C193.037 324.413 193.308 324.852 193.602 325.256C193.636 325.256 193.67 325.256 193.657 325.187C193.47 324.695 193.249 324.232 192.997 323.805Z" fill="#263238"/>
<path d="M197.395 320.538C196.489 318.577 195.489 316.71 194.404 314.95C193.3 313.203 192.08 311.619 190.761 310.221C190.756 310.214 190.75 310.209 190.744 310.206C190.737 310.203 190.731 310.202 190.724 310.202C190.718 310.202 190.711 310.205 190.705 310.209C190.699 310.213 190.694 310.219 190.689 310.226C190.685 310.233 190.681 310.241 190.679 310.25C190.677 310.26 190.676 310.269 190.676 310.279C190.676 310.288 190.678 310.298 190.681 310.307C190.684 310.315 190.688 310.323 190.693 310.33C191.794 312.077 192.916 313.805 194.03 315.542C194.574 316.381 196.974 320.34 197.266 320.705C197.334 320.765 197.429 320.616 197.395 320.538Z" fill="#263238"/>
<path d="M188.918 327.053C188.039 325.236 187.079 323.504 186.043 321.87C184.879 320.347 183.641 318.948 182.338 317.684C182.29 317.684 182.229 317.744 182.27 317.793C183.425 319.323 184.601 320.814 185.669 322.413C186.213 323.203 188.232 326.5 188.789 327.182C188.801 327.206 188.819 327.223 188.839 327.229C188.86 327.235 188.881 327.228 188.898 327.211C188.915 327.194 188.927 327.168 188.931 327.138C188.934 327.109 188.93 327.078 188.918 327.053Z" fill="#263238"/>
<path d="M176.723 297.476L167.137 324.082C167.137 324.082 145.54 315.799 143.677 301.593C141.814 287.386 166.559 254.729 174.194 247.009C181.828 239.289 186.485 238.252 180.461 255.835C174.438 273.417 165.118 291.503 165.88 292.411C166.525 293.172 176.723 297.476 176.723 297.476Z" fill="#FFC727"/>
<path d="M161.522 278.087C161.459 278.742 161.459 279.406 161.522 280.061C161.579 280.726 161.702 281.374 161.889 281.986C161.952 281.331 161.952 280.667 161.889 280.012C161.826 279.349 161.702 278.702 161.522 278.087Z" fill="white"/>
<path d="M164.255 310.942C164.147 312.284 164.281 313.645 164.642 314.891C164.706 314.236 164.706 313.571 164.642 312.916C164.582 312.233 164.452 311.568 164.255 310.942Z" fill="white"/>
<path d="M153.106 294.929C153.043 295.584 153.043 296.248 153.106 296.903C153.165 297.565 153.291 298.21 153.48 298.818C153.547 298.164 153.547 297.499 153.48 296.844C153.42 296.183 153.294 295.537 153.106 294.929Z" fill="white"/>
<path d="M175.343 269.31L175.302 269.408C175.298 269.343 175.298 269.277 175.302 269.212C175.319 269.241 175.333 269.274 175.343 269.31Z" fill="white"/>
<path d="M170.162 251.826C170.053 253.169 170.187 254.53 170.55 255.775C170.613 255.12 170.613 254.456 170.55 253.801C170.491 253.118 170.361 252.452 170.162 251.826Z" fill="white"/>
<path d="M173.684 298.503C173.503 297.891 173.379 297.247 173.317 296.587C173.317 296.39 173.303 296.193 173.276 295.995L173.623 296.143C173.623 296.262 173.657 296.39 173.67 296.508C173.739 297.169 173.744 297.84 173.684 298.503Z" fill="white"/>
<path d="M175.03 246.258C175.481 246.351 175.938 246.351 176.389 246.258C176.857 246.172 177.315 245.993 177.749 245.725C176.825 245.557 175.886 245.747 175.03 246.277V246.258Z" fill="white"/>
<path d="M152.549 279.942C153 280.034 153.457 280.034 153.908 279.942C154.364 279.861 154.808 279.681 155.227 279.41C154.776 279.318 154.318 279.318 153.867 279.41C153.413 279.5 152.97 279.679 152.549 279.942Z" fill="white"/>
<path d="M162.052 296.843C162.503 296.936 162.961 296.936 163.412 296.843C163.869 296.762 164.316 296.583 164.737 296.311C164.287 296.219 163.829 296.219 163.378 296.311C162.921 296.4 162.475 296.58 162.052 296.843Z" fill="white"/>
<path d="M156.41 316.272C156.861 316.365 157.318 316.365 157.769 316.272C158.227 316.191 158.674 316.011 159.095 315.74C158.17 315.581 157.233 315.775 156.376 316.301L156.41 316.272Z" fill="white"/>
<path d="M146.097 302.767C146.548 302.859 147.006 302.859 147.457 302.767C147.912 302.685 148.357 302.506 148.776 302.234C147.851 302.076 146.914 302.269 146.056 302.796L146.097 302.767Z" fill="white"/>
<path d="M166.043 262.853C166.494 262.946 166.951 262.946 167.402 262.853C167.86 262.772 168.307 262.592 168.728 262.321C167.803 262.162 166.866 262.356 166.009 262.883L166.043 262.853Z" fill="white"/>
<path d="M182.304 248.559C181.936 248.965 181.611 249.447 181.338 249.99C181.057 250.517 180.828 251.098 180.659 251.718C181.025 251.315 181.348 250.836 181.617 250.296C181.901 249.767 182.132 249.182 182.304 248.559Z" fill="white"/>
<path d="M168.735 271.541C168.369 271.948 168.046 272.43 167.776 272.973C167.493 273.498 167.264 274.08 167.096 274.701C167.464 274.3 167.787 273.821 168.055 273.279C168.339 272.751 168.568 272.166 168.735 271.541Z" fill="white"/>
<path d="M168.735 303.073C168.369 303.48 168.046 303.962 167.776 304.505C167.493 305.03 167.264 305.612 167.096 306.233C167.464 305.832 167.787 305.353 168.055 304.811C168.339 304.283 168.568 303.698 168.735 303.073Z" fill="white"/>
<path d="M154.588 307.328C153.863 308.158 153.298 309.246 152.95 310.488C153.317 310.084 153.641 309.601 153.908 309.056C154.191 308.531 154.42 307.949 154.588 307.328Z" fill="white"/>
<path d="M158.041 287.159C157.679 287.567 157.356 288.046 157.083 288.581C156.8 289.11 156.571 289.695 156.403 290.318C156.767 289.913 157.09 289.434 157.362 288.897C157.643 288.367 157.872 287.782 158.041 287.159Z" fill="white"/>
<path d="M167.912 319.669C167.19 320.5 166.628 321.589 166.281 322.828C167.007 322.002 167.569 320.912 167.912 319.669Z" fill="white"/>
<path d="M167.871 286.685L167.715 287.061C167.565 286.932 167.423 286.784 167.28 286.636C166.91 286.242 166.58 285.773 166.301 285.244C166.727 285.492 167.127 285.824 167.491 286.231C167.62 286.379 167.756 286.528 167.871 286.685Z" fill="white"/>
<path d="M149.184 291.503C148.903 290.976 148.573 290.508 148.205 290.111C147.84 289.702 147.437 289.37 147.008 289.124C147.288 289.653 147.617 290.122 147.987 290.516C148.352 290.925 148.755 291.258 149.184 291.503Z" fill="white"/>
<path d="M160.958 306.4C160.679 305.871 160.349 305.403 159.979 305.008C159.614 304.599 159.211 304.267 158.782 304.021C159.064 304.55 159.396 305.019 159.768 305.413C160.132 305.82 160.532 306.152 160.958 306.4Z" fill="white"/>
<path d="M177.586 259.764C177.304 259.223 176.97 258.744 176.593 258.342C176.23 257.93 175.827 257.597 175.397 257.355C175.674 257.886 176.004 258.355 176.376 258.747C176.743 259.169 177.151 259.512 177.586 259.764Z" fill="white"/>
<path d="M161.454 270.722C160.881 269.674 160.132 268.858 159.279 268.353C159.558 268.882 159.887 269.35 160.257 269.745C160.623 270.15 161.025 270.479 161.454 270.722Z" fill="white"/>
<path d="M164.078 320.389C164.534 319.511 167.844 310.952 168.538 309.066C169.231 307.18 172.113 299.529 172.712 297.506C172.715 297.489 172.714 297.472 172.709 297.456C172.705 297.441 172.697 297.428 172.687 297.419C172.678 297.41 172.666 297.406 172.655 297.407C172.643 297.409 172.632 297.416 172.623 297.427C171.774 299.253 168.85 306.963 168.116 308.859C167.382 310.754 164.241 319.323 163.983 320.33C163.963 320.419 164.044 320.449 164.078 320.389Z" fill="#263238"/>
<path d="M176.838 297.387L176.389 298.473C176.451 298.354 176.695 297.545 176.695 297.545C173.772 296.558 170.863 295.501 167.987 294.208C167.627 294.04 167.266 293.872 166.906 293.675C166.52 293.486 166.15 293.231 165.805 292.915C165.776 292.882 165.748 292.846 165.723 292.806C165.681 292.732 165.646 292.649 165.621 292.559C165.596 292.407 165.596 292.248 165.621 292.095C165.655 291.957 165.696 291.799 165.737 291.671C165.778 291.543 165.9 291.158 165.982 290.911C166.152 290.417 166.335 289.924 166.512 289.45C167.232 287.475 167.98 285.619 168.748 283.734C170.305 279.982 171.855 276.231 173.466 272.548C174.989 269.054 176.573 265.105 178.171 261.689C178.266 261.482 178.51 261.294 178.218 262.044C176.75 265.865 175.424 269.162 173.908 272.904L169.326 284.198C168.565 286.083 167.79 287.949 167.063 289.854C166.879 290.328 166.695 290.842 166.525 291.286C166.437 291.523 166.362 291.76 166.281 291.997L166.213 292.263L166.165 292.214C166.169 292.237 166.169 292.26 166.165 292.283C166.165 292.283 166.165 292.372 166.165 292.342V292.273C166.449 292.506 166.744 292.708 167.049 292.875L168.096 293.438C169.503 294.178 170.937 294.84 172.379 295.482L176.838 297.387Z" fill="#263238"/>
<path d="M166.213 292.273V292.342C166.213 292.342 166.213 292.293 166.213 292.283C166.217 292.26 166.217 292.237 166.213 292.214V292.273Z" fill="#263238"/>
<path d="M177.769 266.635C177.973 266.408 177.953 266.635 177.858 266.763C177.334 267.75 176.532 268.787 175.948 269.656C175.262 270.688 174.531 271.655 173.759 272.548C174.361 271.41 175.013 270.329 175.71 269.31C176.352 268.35 177.041 267.456 177.769 266.635Z" fill="#263238"/>
<path d="M189.509 251.076C187.171 252.063 182.956 247.127 181.223 242.951C181.1 242.665 181.311 239.575 181.44 235.804C181.515 233.523 181.563 230.966 181.488 228.637C181.488 228.163 191.685 231.509 191.685 231.509C191.204 234.465 190.976 237.496 191.005 240.533C191.017 240.865 191.048 241.196 191.1 241.52C191.1 241.52 191.1 241.619 191.1 241.678C191.372 243.445 191.766 250.138 189.509 251.076Z" fill="#EB9481"/>
<path d="M182.113 228.656C182.705 232.605 184.703 241.974 190.081 241.786C190.425 241.781 190.769 241.731 191.107 241.638C191.112 241.586 191.112 241.533 191.107 241.48C191.057 241.155 191.023 240.825 191.005 240.493C190.978 237.456 191.207 234.426 191.685 231.47C191.685 231.47 184.316 229.091 182.113 228.656Z" fill="#263238"/>
<path d="M194.044 205.318C194.044 205.318 197.321 207.293 197.926 212.11C198.531 216.928 197.776 221.983 197.491 222.249C197.205 222.516 194.044 205.318 194.044 205.318Z" fill="#263238"/>
<path d="M180.264 211.419C179.313 216.661 181.624 231.539 184.214 234.737C188.028 239.377 194.064 239.506 196.729 232.921C199.313 226.543 196.111 207.253 193.194 204.351C188.898 200.096 181.672 203.669 180.264 211.419Z" fill="#EB9481"/>
<path d="M190.754 221.213C190.754 221.213 190.706 221.282 190.713 221.321C190.89 222.308 190.971 223.503 190.393 224.026C190.393 224.026 190.393 224.095 190.393 224.085C191.148 223.69 191.026 222.121 190.754 221.213Z" fill="#263238"/>
<path d="M189.979 220.364C188.85 220.591 189.251 223.858 190.298 223.641C191.345 223.424 190.93 220.176 189.979 220.364Z" fill="#263238"/>
<path d="M194.656 220.245C194.656 220.245 194.717 220.245 194.717 220.324C194.819 221.311 195.057 222.476 195.723 222.654V222.713C194.948 222.802 194.635 221.232 194.656 220.245Z" fill="#263238"/>
<path d="M195.145 219.031C196.253 218.616 196.736 221.854 195.716 222.239C194.697 222.624 194.221 219.376 195.145 219.031Z" fill="#263238"/>
<path d="M188.633 218.044C188.933 217.921 189.228 217.772 189.516 217.599C189.844 217.505 190.141 217.255 190.359 216.889C190.411 216.754 190.432 216.599 190.418 216.446C190.405 216.293 190.358 216.151 190.285 216.04C190.113 215.855 189.909 215.74 189.696 215.709C189.483 215.678 189.269 215.731 189.075 215.862C188.655 216.031 188.293 216.422 188.062 216.958C188.015 217.085 187.994 217.229 188.002 217.372C188.01 217.516 188.046 217.653 188.106 217.768C188.167 217.882 188.248 217.969 188.342 218.018C188.435 218.067 188.536 218.076 188.633 218.044Z" fill="#263238"/>
<path d="M195.886 216.385C195.575 216.373 195.264 216.337 194.955 216.276C194.622 216.305 194.292 216.173 194.017 215.901C193.942 215.792 193.893 215.649 193.88 215.495C193.866 215.342 193.888 215.186 193.942 215.052C194.076 214.811 194.252 214.626 194.451 214.517C194.651 214.407 194.867 214.378 195.077 214.43C195.514 214.446 195.932 214.692 196.253 215.121C196.322 215.227 196.368 215.36 196.385 215.503C196.403 215.645 196.392 215.793 196.353 215.927C196.314 216.06 196.249 216.175 196.166 216.256C196.084 216.338 195.986 216.382 195.886 216.385Z" fill="#263238"/>
<path d="M190.733 230.907C190.916 231.168 191.157 231.325 191.413 231.351C191.671 231.272 191.916 231.121 192.134 230.907C192.134 230.907 192.181 230.907 192.168 230.907C192.093 231.132 191.978 231.323 191.834 231.461C191.69 231.598 191.524 231.676 191.352 231.687C191.199 231.676 191.052 231.597 190.93 231.461C190.809 231.325 190.719 231.139 190.672 230.927C190.672 230.927 190.706 230.877 190.733 230.907Z" fill="#263238"/>
<path d="M191.1 227.738C191.325 228.094 191.598 228.378 191.902 228.572C192.207 228.766 192.535 228.865 192.868 228.864C193.157 228.87 193.445 228.817 193.724 228.706L193.888 228.637L194.037 228.567C194.072 228.545 194.101 228.507 194.121 228.459C194.14 228.412 194.149 228.356 194.146 228.301C194.148 228.268 194.148 228.235 194.146 228.202V228.113C194.071 227.333 193.874 226.139 193.874 226.139C194.085 226.238 195.166 226.632 195.098 226.228C194.609 222.719 193.876 219.292 192.909 216C192.9 215.983 192.888 215.971 192.874 215.965C192.861 215.959 192.846 215.959 192.833 215.966C192.819 215.972 192.807 215.985 192.799 216.002C192.791 216.018 192.786 216.039 192.786 216.059C193.228 219.287 194.051 222.387 194.533 225.625C194.148 225.474 193.75 225.404 193.35 225.418C193.282 225.468 193.758 227.669 193.772 228.024C193.341 228.201 192.89 228.249 192.446 228.166C192.002 228.083 191.575 227.87 191.189 227.541C191.094 227.541 191.046 227.62 191.1 227.738Z" fill="#263238"/>
<path d="M193.364 228.34C193.138 228.973 192.804 229.511 192.392 229.9C192.163 230.099 191.897 230.192 191.631 230.167C191.053 230.098 190.951 229.357 190.951 228.696C190.967 228.344 191.01 227.997 191.08 227.659C191.771 228.239 192.572 228.478 193.364 228.34Z" fill="#263238"/>
<path d="M192.392 229.9C192.163 230.099 191.897 230.192 191.631 230.167C191.053 230.098 190.951 229.357 190.951 228.696C191.249 228.637 191.552 228.723 191.813 228.941C192.074 229.159 192.278 229.496 192.392 229.9Z" fill="#FF98B9"/>
<path d="M181.61 225.527C182.82 225.764 183.568 220.423 183.718 218.409C183.854 216.632 183.616 211.143 183.629 210.768C183.643 210.393 189.183 214.322 191.937 212.397C194.69 210.471 196.192 206.226 196.015 204.499C195.839 202.771 191.746 199.128 188.606 199.651C185.465 200.175 181.923 206.927 181.923 206.927C182.332 205.981 182.691 204.991 182.997 203.966C182.922 203.768 181.046 205.427 180.917 207.589C180.917 207.589 181.012 204.884 180.856 204.874C180.699 204.864 179.394 207.48 179.938 209.08C179.938 209.08 178.395 211.794 178.517 214.322C178.64 216.849 180.196 225.25 181.61 225.527Z" fill="#263238"/>
<path d="M193.888 211.014C193.111 211.899 192.244 212.602 191.318 213.098C190.268 213.487 189.166 213.487 188.116 213.098C187.057 212.781 186.041 212.21 185.111 211.409C184.282 210.718 183.521 209.83 182.664 209.247C182.446 209.099 182.27 209.563 182.419 209.79C184.013 212.118 186.079 213.641 188.313 214.134C189.351 214.365 190.413 214.199 191.394 213.654C192.375 213.109 193.241 212.203 193.908 211.024C193.908 211.024 193.901 211.005 193.888 211.014Z" fill="#263238"/>
<path d="M182.786 223.503C182.786 223.503 180.264 218.863 178.803 220.196C177.341 221.528 179.374 228.399 181.182 229.209C181.41 229.335 181.654 229.393 181.898 229.38C182.142 229.366 182.381 229.281 182.602 229.13C182.823 228.979 183.02 228.765 183.183 228.5C183.345 228.235 183.47 227.926 183.548 227.59L182.786 223.503Z" fill="#EB9481"/>
<path d="M179.415 222.141C179.415 222.141 179.415 222.2 179.415 222.21C180.693 222.842 181.413 224.461 181.943 226.159C181.864 225.984 181.759 225.836 181.636 225.726C181.513 225.615 181.375 225.545 181.231 225.52C181.088 225.495 180.942 225.515 180.805 225.579C180.667 225.643 180.541 225.75 180.434 225.892C180.434 225.892 180.434 226.001 180.475 225.981C180.69 225.862 180.925 225.844 181.148 225.927C181.37 226.01 181.57 226.191 181.719 226.445C181.966 226.871 182.18 227.334 182.358 227.827C182.426 227.985 182.623 227.886 182.576 227.699C182.494 225.349 181.128 222.229 179.415 222.141Z" fill="#263238"/>
<path d="M179.992 244.047C181.106 246.018 182.296 247.897 183.555 249.674C184.71 251.414 186.222 252.564 187.864 252.952C189.462 253.159 191.06 252.685 191.644 249.852C192.059 247.413 192.098 244.872 191.76 242.408C191.757 242.395 191.756 242.381 191.757 242.367C191.758 242.353 191.762 242.339 191.768 242.328C191.773 242.316 191.781 242.307 191.79 242.3C191.798 242.294 191.808 242.29 191.818 242.29C191.827 242.29 191.837 242.294 191.846 242.3C191.854 242.307 191.862 242.316 191.867 242.328C191.873 242.339 191.877 242.353 191.878 242.367C191.88 242.381 191.879 242.395 191.875 242.408C192.242 246.11 192.623 251.856 190.305 253.14C187.708 254.581 185.159 252.636 183.33 250.03C182.05 248.243 180.91 246.257 179.931 244.106C179.952 244.057 179.992 244.008 179.992 244.047Z" fill="#263238"/>
</svg>
