<?xml version="1.0" encoding="UTF-8"?>
<svg version="1.1" xmlns="http://www.w3.org/2000/svg" width="300" height="300">
<path d="M0 0 C99 0 198 0 300 0 C300 99 300 198 300 300 C201 300 102 300 0 300 C0 201 0 102 0 0 Z " fill="#FFFF" transform="translate(0,0)"/>
<path d="M0 0 C2.95703125 1.59375 2.95703125 1.59375 5.8125 3.5 C6.76769531 4.1290625 7.72289062 4.758125 8.70703125 5.40625 C11 7 11 7 12 8 C12.11755315 10.35147077 12.17005006 12.6744149 12.18081665 15.02726746 C12.18802117 15.77117857 12.19522568 16.51508968 12.20264852 17.28154355 C12.22550789 19.79339317 12.24098463 22.30523277 12.25634766 24.81713867 C12.27078828 26.61048632 12.2855458 28.40383145 12.30059814 30.19717407 C12.43097389 46.58173712 12.49674537 62.96699002 12.54844093 79.35196972 C12.58736577 91.46980011 12.65573341 103.58670205 12.76298869 115.70412463 C12.83580496 124.2171044 12.87427007 132.72983001 12.88746679 141.24310857 C12.89634039 146.33101192 12.92066021 151.41776854 12.98213577 156.50533104 C13.0393334 161.29343132 13.05406939 166.07979242 13.03626251 170.86818314 C13.03714179 172.62504274 13.05343262 174.3819728 13.08630753 176.13852501 C13.32135698 189.3858153 13.32135698 189.3858153 10.02976513 193.40686131 C6.63894663 195.77949782 4.23683396 197.01802665 0.06860352 196.95727539 C-0.75712158 196.65297607 -1.58284668 196.34867676 -2.43359375 196.03515625 C-6.82706768 194.92515372 -8.96381518 194.94655046 -12.97265625 197.12109375 C-14.68874536 198.1960823 -16.38471725 199.30365378 -18.0625 200.4375 C-19.97372307 201.64826348 -21.88655662 202.85648759 -23.80078125 204.0625 C-24.80061035 204.70445312 -25.80043945 205.34640625 -26.83056641 206.0078125 C-32.37018837 209.48981183 -38.06649607 212.69831299 -43.75 215.9375 C-46.87209105 217.72763052 -49.99154763 219.52105981 -53.09960938 221.33544922 C-55.01779447 222.43630662 -56.95699042 223.50141042 -58.91601562 224.52783203 C-64.43706353 227.33666929 -64.43706353 227.33666929 -67.23046875 232.625 C-67.48441406 233.73875 -67.73835938 234.8525 -68 236 C-70.86328125 238.25 -70.86328125 238.25 -74.3125 240 C-75.44300781 240.598125 -76.57351562 241.19625 -77.73828125 241.8125 C-81.29032574 243.10569943 -82.50758368 243.28000093 -86 242 C-88.12039435 240.90213084 -90.2034044 239.72997371 -92.25 238.5 C-93.30703125 237.8709375 -94.3640625 237.241875 -95.453125 236.59375 C-98 235 -98 235 -99 234 C-99.12637627 231.67847915 -99.18785254 229.38544702 -99.20773315 227.06211853 C-99.21775993 226.32778565 -99.22778672 225.59345278 -99.23811734 224.83686739 C-99.2703996 222.35734375 -99.29521198 219.87780423 -99.31982422 217.39819336 C-99.34080856 215.62779439 -99.36205488 213.85739852 -99.38354492 212.08700562 C-99.57152799 195.90328281 -99.67414529 179.71852799 -99.75568962 163.53395748 C-99.81726646 151.56680584 -99.92077075 139.60153396 -100.07838428 127.6352548 C-100.18542922 119.2258813 -100.24273298 110.81702541 -100.26382077 102.40700251 C-100.2778975 97.38217774 -100.31436476 92.35981208 -100.405056 87.33573723 C-100.48957574 82.60457338 -100.51247909 77.87704987 -100.48869324 73.14522934 C-100.49066885 71.41168815 -100.51482409 69.67800429 -100.56312943 67.94513512 C-100.70227066 62.68408385 -100.64123586 58.033864 -99 53 C-95.06366108 49.1295927 -91.06946819 47.20590354 -86 45 C-83.94157412 43.85648714 -81.89269146 42.69539953 -79.859375 41.5078125 C-77.82417073 40.37794645 -75.78768743 39.25038156 -73.75 38.125 C-65.98360913 33.80549369 -58.2551532 29.4418666 -50.61352539 24.90551758 C-42.92717367 20.34738607 -35.17862692 15.89758551 -27.43383789 11.43969727 C-26.38703857 10.83697998 -25.34023926 10.2342627 -24.26171875 9.61328125 C-23.22837402 9.02369629 -22.1950293 8.43411133 -21.13037109 7.82666016 C-18.9807055 6.57226943 -16.85410029 5.27776827 -14.74853516 3.95068359 C-13.70358887 3.3005127 -12.65864258 2.6503418 -11.58203125 1.98046875 C-10.65237549 1.38516357 -9.72271973 0.7898584 -8.76489258 0.17651367 C-5.34214425 -1.27992997 -3.54499234 -0.98238037 0 0 Z " fill="#D36139" transform="translate(162,29)"/>
<path d="M0 0 C2.95703125 1.59375 2.95703125 1.59375 5.8125 3.5 C6.76769531 4.1290625 7.72289062 4.758125 8.70703125 5.40625 C11 7 11 7 12 8 C12.11312873 10.35383842 12.16114484 12.67898147 12.1673584 15.03399658 C12.17315178 15.77861326 12.17894517 16.52322994 12.18491411 17.29041076 C12.20306177 19.80460337 12.21387092 22.31877337 12.22460938 24.83300781 C12.23577825 26.62797759 12.24729136 28.42294525 12.25912476 30.21791077 C12.29575738 36.1296191 12.32091026 42.04134914 12.34375 47.953125 C12.34769587 48.95773112 12.35164173 49.96233725 12.35570717 50.99738598 C12.39212823 60.46616655 12.42358468 69.93495443 12.44481659 79.40378189 C12.47240618 91.5304549 12.52319072 103.65654383 12.60529089 115.78297353 C12.6610155 124.30104234 12.69004299 132.81895236 12.6992898 141.33719707 C12.70555811 146.42877926 12.72377495 151.51967741 12.77067566 156.6110611 C12.81425563 161.40143622 12.8248575 166.19075127 12.81004715 170.98129082 C12.81037657 172.74014926 12.82271324 174.49905231 12.84789658 176.25773048 C12.88046991 178.65913214 12.86989608 181.05662911 12.84851074 183.45806885 C12.86821851 184.15486606 12.88792628 184.85166327 12.90823126 185.56957555 C12.84289825 188.47305737 12.51876868 190.47081361 10.45522404 192.57579756 C5.83443458 196 5.83443458 196 3 196 C3 141.55 3 87.1 3 31 C-2.9150208 33.9575104 -8.54724204 36.79886568 -14.125 40.25 C-19.2173758 43.35291378 -24.34993172 46.35368729 -29.5625 49.25 C-37.2835515 53.54357265 -44.88007656 58.03906641 -52.46313477 62.57128906 C-53.35444092 63.10206055 -54.24574707 63.63283203 -55.1640625 64.1796875 C-55.95248535 64.65132324 -56.7409082 65.12295898 -57.55322266 65.60888672 C-60.31899266 67.18136302 -63.15059942 68.58579106 -66 70 C-65.99815641 70.81299088 -65.99631283 71.62598177 -65.99441338 72.46360874 C-65.95022982 92.25252631 -65.91714121 112.04143536 -65.89637566 131.83039188 C-65.88606648 141.40021093 -65.87201298 150.96999702 -65.84912109 160.53979492 C-65.82917627 168.88157706 -65.81628095 177.22333534 -65.81182301 185.56514066 C-65.80921749 189.98136978 -65.80310079 194.39753064 -65.78853989 198.81373787 C-65.77493874 202.97265618 -65.77078249 207.13147828 -65.77378464 211.29041672 C-65.77323561 212.81457352 -65.76927326 214.33873364 -65.76158905 215.86287117 C-65.75158799 217.94935222 -65.75404967 220.03547352 -65.75949097 222.1219635 C-65.75764738 223.28803163 -65.75580379 224.45409975 -65.75390434 225.65550327 C-66.02726759 229.3705729 -66.73074756 232.49869584 -68 236 C-70.86328125 238.25 -70.86328125 238.25 -74.3125 240 C-75.44300781 240.598125 -76.57351562 241.19625 -77.73828125 241.8125 C-81.29032574 243.10569943 -82.50758368 243.28000093 -86 242 C-88.12039435 240.90213084 -90.2034044 239.72997371 -92.25 238.5 C-93.30703125 237.8709375 -94.3640625 237.241875 -95.453125 236.59375 C-98 235 -98 235 -99 234 C-99.12637627 231.67847915 -99.18785254 229.38544702 -99.20773315 227.06211853 C-99.21775993 226.32778565 -99.22778672 225.59345278 -99.23811734 224.83686739 C-99.2703996 222.35734375 -99.29521198 219.87780423 -99.31982422 217.39819336 C-99.34080856 215.62779439 -99.36205488 213.85739852 -99.38354492 212.08700562 C-99.57152799 195.90328281 -99.67414529 179.71852799 -99.75568962 163.53395748 C-99.81726646 151.56680584 -99.92077075 139.60153396 -100.07838428 127.6352548 C-100.18542922 119.2258813 -100.24273298 110.81702541 -100.26382077 102.40700251 C-100.2778975 97.38217774 -100.31436476 92.35981208 -100.405056 87.33573723 C-100.48957574 82.60457338 -100.51247909 77.87704987 -100.48869324 73.14522934 C-100.49066885 71.41168815 -100.51482409 69.67800429 -100.56312943 67.94513512 C-100.70227066 62.68408385 -100.64123586 58.033864 -99 53 C-95.06366108 49.1295927 -91.06946819 47.20590354 -86 45 C-83.94157412 43.85648714 -81.89269146 42.69539953 -79.859375 41.5078125 C-77.82417073 40.37794645 -75.78768743 39.25038156 -73.75 38.125 C-65.98360913 33.80549369 -58.2551532 29.4418666 -50.61352539 24.90551758 C-42.92717367 20.34738607 -35.17862692 15.89758551 -27.43383789 11.43969727 C-26.38703857 10.83697998 -25.34023926 10.2342627 -24.26171875 9.61328125 C-23.22837402 9.02369629 -22.1950293 8.43411133 -21.13037109 7.82666016 C-18.9807055 6.57226943 -16.85410029 5.27776827 -14.74853516 3.95068359 C-13.70358887 3.3005127 -12.65864258 2.6503418 -11.58203125 1.98046875 C-10.65237549 1.38516357 -9.72271973 0.7898584 -8.76489258 0.17651367 C-5.34214425 -1.27992997 -3.54499234 -0.98238037 0 0 Z " fill="#B6512D" transform="translate(162,29)"/>
<path d="M0 0 C2.9921875 1.62890625 2.9921875 1.62890625 5.875 3.5625 C6.84179688 4.20316406 7.80859375 4.84382813 8.8046875 5.50390625 C9.89136719 6.24447266 9.89136719 6.24447266 11 7 C7.88860499 10.44011734 4.4648916 12.66370891 0.4375 14.875 C-0.69816406 15.51179688 -1.83382812 16.14859375 -3.00390625 16.8046875 C-5.16221528 17.99593115 -7.32582795 19.17652071 -9.4934082 20.35083008 C-16.41518705 24.10367666 -23.25084783 27.98869333 -30.0625 31.9375 C-31.76196198 32.92060181 -33.46142559 33.90370082 -35.16098022 34.88664246 C-36.33037514 35.56306837 -37.49966577 36.23967461 -38.66885376 36.91645813 C-42.81640828 39.31705447 -46.96775432 41.71099072 -51.12109375 44.1015625 C-52.2857344 44.77220206 -53.45036666 45.44285618 -54.61499023 46.11352539 C-56.8081885 47.37629508 -59.00169149 48.63853574 -61.19555664 49.90014648 C-66.86164114 53.16501765 -72.48202472 56.48353779 -78.0390625 59.93139648 C-80 61 -80 61 -82 61 C-82.33 120.73 -82.66 180.46 -83 242 C-82.34 242.33 -81.68 242.66 -81 243 C-85.38986156 242.41468513 -88.47361361 240.76955241 -92.25 238.5 C-93.30703125 237.8709375 -94.3640625 237.241875 -95.453125 236.59375 C-98 235 -98 235 -99 234 C-99.12637627 231.67847915 -99.18785254 229.38544702 -99.20773315 227.06211853 C-99.21775993 226.32778565 -99.22778672 225.59345278 -99.23811734 224.83686739 C-99.2703996 222.35734375 -99.29521198 219.87780423 -99.31982422 217.39819336 C-99.34080856 215.62779439 -99.36205488 213.85739852 -99.38354492 212.08700562 C-99.57152799 195.90328281 -99.67414529 179.71852799 -99.75568962 163.53395748 C-99.81726646 151.56680584 -99.92077075 139.60153396 -100.07838428 127.6352548 C-100.18542922 119.2258813 -100.24273298 110.81702541 -100.26382077 102.40700251 C-100.2778975 97.38217774 -100.31436476 92.35981208 -100.405056 87.33573723 C-100.48957574 82.60457338 -100.51247909 77.87704987 -100.48869324 73.14522934 C-100.49066885 71.41168815 -100.51482409 69.67800429 -100.56312943 67.94513512 C-100.70227066 62.68408385 -100.64123586 58.033864 -99 53 C-95.06366108 49.1295927 -91.06946819 47.20590354 -86 45 C-83.94157412 43.85648714 -81.89269146 42.69539953 -79.859375 41.5078125 C-77.82417073 40.37794645 -75.78768743 39.25038156 -73.75 38.125 C-65.98360913 33.80549369 -58.2551532 29.4418666 -50.61352539 24.90551758 C-42.92717367 20.34738607 -35.17862692 15.89758551 -27.43383789 11.43969727 C-26.38703857 10.83697998 -25.34023926 10.2342627 -24.26171875 9.61328125 C-23.22837402 9.02369629 -22.1950293 8.43411133 -21.13037109 7.82666016 C-18.9807055 6.57226943 -16.85410029 5.27776827 -14.74853516 3.95068359 C-13.70358887 3.3005127 -12.65864258 2.6503418 -11.58203125 1.98046875 C-10.65237549 1.38516357 -9.72271973 0.7898584 -8.76489258 0.17651367 C-5.34116873 -1.28034507 -3.54578986 -0.98458578 0 0 Z " fill="#CF6139" transform="translate(162,29)"/>
<path d="M0 0 C2.9921875 1.62890625 2.9921875 1.62890625 5.875 3.5625 C6.84179688 4.20316406 7.80859375 4.84382813 8.8046875 5.50390625 C9.89136719 6.24447266 9.89136719 6.24447266 11 7 C7.88860499 10.44011734 4.4648916 12.66370891 0.4375 14.875 C-0.69816406 15.51179688 -1.83382812 16.14859375 -3.00390625 16.8046875 C-5.16221528 17.99593115 -7.32582795 19.17652071 -9.4934082 20.35083008 C-16.41518899 24.10367772 -23.25081063 27.98875539 -30.0625 31.9375 C-31.76407147 32.92164815 -33.46564436 33.90579386 -35.16729736 34.88980103 C-36.92734237 35.90776521 -38.6870652 36.92628478 -40.44677734 37.94482422 C-43.97941157 39.98888324 -47.51472779 42.02826925 -51.05078125 44.06640625 C-51.62588943 44.39793198 -52.20099762 44.7294577 -52.79353333 45.07102966 C-55.53551186 46.65161569 -58.2776013 48.23200912 -61.01977539 49.81225586 C-62.02129639 50.38983643 -63.02281738 50.96741699 -64.0546875 51.5625 C-65.03018555 52.119375 -66.00568359 52.67625 -67.01074219 53.25 C-69.11338219 54.48094769 -71.19043014 55.75614691 -73.24707031 57.0625 C-74.30249023 57.7225 -75.35791016 58.3825 -76.4453125 59.0625 C-77.39164551 59.67222656 -78.33797852 60.28195313 -79.31298828 60.91015625 C-82 62 -82 62 -84.67993164 61.27783203 C-87.25851559 59.85761648 -89.80270625 58.41434017 -92.3125 56.875 C-93.19550781 56.33617187 -94.07851562 55.79734375 -94.98828125 55.2421875 C-95.65214844 54.83226562 -96.31601563 54.42234375 -97 54 C-95.78811368 50.00258393 -93.18678412 48.70633339 -89.64575195 46.80541992 C-88.89640381 46.41588135 -88.14705566 46.02634277 -87.375 45.625 C-85.72904204 44.74093237 -84.0845869 43.85406281 -82.44140625 42.96484375 C-81.55984863 42.48901855 -80.67829102 42.01319336 -79.77001953 41.52294922 C-74.89408953 38.84217614 -70.10802061 36.00880628 -65.3125 33.1875 C-56.48544195 28.01021234 -47.61651629 22.91767902 -38.68310547 17.92602539 C-33.54693841 15.04572093 -28.46830481 12.09376452 -23.43359375 9.0390625 C-21.80550781 8.05969727 -21.80550781 8.05969727 -20.14453125 7.06054688 C-18.05135507 5.79724749 -15.96624561 4.5204564 -13.890625 3.22851562 C-12.94574219 2.66068359 -12.00085938 2.09285156 -11.02734375 1.5078125 C-10.19968506 0.99879395 -9.37202637 0.48977539 -8.51928711 -0.03466797 C-5.27038263 -1.27957235 -3.32947492 -0.87912625 0 0 Z " fill="#F5915B" transform="translate(162,29)"/>
<path d="M0 0 C0 54.78 0 109.56 0 166 C-9 163 -9 163 -10 162 C-10.09678239 159.96238813 -10.12186965 157.92136288 -10.12025452 155.88145447 C-10.12110894 155.23539877 -10.12196337 154.58934307 -10.12284368 153.92370993 C-10.12450024 151.74330183 -10.11897429 149.56296945 -10.11352539 147.38256836 C-10.11324353 145.82579042 -10.11340123 144.26901236 -10.1139679 142.7122345 C-10.11425592 138.47274796 -10.10835846 134.23328946 -10.10139394 129.99380946 C-10.09516115 125.5681858 -10.09455666 121.14256157 -10.09336853 116.7169342 C-10.09025499 108.33046022 -10.0820413 99.9439992 -10.07201904 91.55753094 C-10.0608586 82.01234651 -10.05534763 72.46716148 -10.05032361 62.92197216 C-10.03985871 43.28130752 -10.02225883 23.64065458 -10 4 C-3.375 0 -3.375 0 0 0 Z " fill="#E78049" transform="translate(165,60)"/>
<path d="M0 0 C0 17.49 0 34.98 0 53 C-5.445 55.97 -5.445 55.97 -11 59 C-14.78714411 61.22404658 -18.55970538 63.46681762 -22.31835938 65.73828125 C-23.38473633 66.37443359 -23.38473633 66.37443359 -24.47265625 67.0234375 C-25.10437744 67.40419434 -25.73609863 67.78495117 -26.38696289 68.17724609 C-28 69 -28 69 -30 69 C-30 51.51 -30 34.02 -30 16 C-1.55555556 0 -1.55555556 0 0 0 Z " fill="#C1DBE6" transform="translate(140,92)"/>
<path d="M0 0 C0 17.49 0 34.98 0 53 C-0.33 52.34 -0.66 51.68 -1 51 C-3.43755448 49.92475509 -5.91644072 49.03036833 -8.41967773 48.12060547 C-11.32506194 46.7113615 -12.97480058 45.54438786 -15 43 C-16.29191622 37.04004222 -16.16999335 31.19747333 -16.0625 25.125 C-16.06557677 23.46613323 -16.07269647 21.80726872 -16.08398438 20.1484375 C-16.10277012 16.0974872 -16.06629106 12.05041521 -16 8 C-13.52215037 6.66416771 -11.04281928 5.33123211 -8.5625 4 C-7.85544922 3.6184375 -7.14839844 3.236875 -6.41992188 2.84375 C-1.11328125 0 -1.11328125 0 0 0 Z " fill="#ADBBC6" transform="translate(140,92)"/>
<path d="M0 0 C0.33 0 0.66 0 1 0 C1 59.73 1 119.46 1 181 C-2 178 -2 178 -2.37473011 174.90619659 C-2.37456237 173.62234825 -2.37439463 172.33849991 -2.3742218 171.01574707 C-2.38018341 169.94314471 -2.38018341 169.94314471 -2.38626546 168.84887362 C-2.39590993 166.44657444 -2.38405777 164.04486103 -2.37231445 161.64257812 C-2.37474172 159.92288493 -2.3784604 158.20319313 -2.38337708 156.48350525 C-2.3927987 151.80793569 -2.38334999 147.13257499 -2.37004495 142.45702171 C-2.3587466 137.56969538 -2.3628367 132.68237958 -2.36479187 127.79504395 C-2.36567536 119.58679788 -2.35458301 111.37863431 -2.33618164 103.17041016 C-2.31501319 93.67335874 -2.31150382 84.17642823 -2.3177436 74.67935801 C-2.32343353 65.55277818 -2.31779598 56.42624103 -2.30657005 47.29966736 C-2.30191914 43.41136386 -2.30105234 39.52308642 -2.3031559 35.63478088 C-2.30503622 31.05803522 -2.29695468 26.48141302 -2.2810955 21.90469551 C-2.27684424 20.22244846 -2.27600773 18.5401889 -2.27878571 16.85793877 C-2.28199612 14.56657356 -2.27295479 12.27557992 -2.26069641 9.98425293 C-2.25864354 8.70040459 -2.25659067 7.41655624 -2.25447559 6.09380341 C-2 3 -2 3 0 0 Z " fill="#FEF0E7" transform="translate(62,82)"/>
<path d="M0 0 C4.875 1.875 4.875 1.875 6 3 C6.11093596 5.37911574 6.1566933 7.72974231 6.16062927 10.10992432 C6.168261 11.23909999 6.168261 11.23909999 6.17604691 12.39108729 C6.19183912 14.93292345 6.20031421 17.47473104 6.20874023 20.01660156 C6.21827326 21.83127527 6.22816417 23.64594712 6.23838806 25.46061707 C6.26983747 31.43726426 6.29004728 37.41392567 6.30859375 43.390625 C6.31189107 44.40625236 6.31518839 45.42187971 6.31858563 46.46828365 C6.34936966 56.04087126 6.37608714 65.6134619 6.39300442 75.18608475 C6.41492143 87.44581235 6.45690453 99.7051025 6.52644199 111.96465516 C6.5736345 120.5761448 6.59793167 129.18751623 6.6052013 137.79913116 C6.61016496 142.94652144 6.62531317 148.0934193 6.6649456 153.24066925 C6.70174128 158.08349598 6.71024497 162.92554764 6.69693947 167.76848793 C6.69699354 169.54668334 6.70733831 171.32491246 6.7286911 173.10297966 C6.75628394 175.53030769 6.74690726 177.95479162 6.72825623 180.38214111 C6.74505115 181.08672022 6.76184608 181.79129933 6.77914995 182.51722932 C6.72648597 185.25781557 6.51376579 187.38331435 4.72544301 189.52988195 C1.43540649 192.3620998 -1.73876821 194.16628074 -6 195 C-8 194.125 -8 194.125 -10 193 C-14.22877647 192.64010413 -17.16849256 193.19693768 -21 195 C-21 195.66 -21 196.32 -21 197 C-22.32 196.67 -23.64 196.34 -25 196 C-16.9833738 189.84406578 -16.9833738 189.84406578 -12.16796875 190.22265625 C-9.375 190.9375 -9.375 190.9375 -6.8359375 191.83984375 C-3.02607106 192.0550015 -0.91726249 191.27523296 2.25373077 189.17779732 C6.34404914 184.0767028 5.05748709 175.93194329 4.97167969 169.69702148 C4.97597217 167.89983007 4.98372872 166.10264407 4.99468994 164.30548096 C5.01407771 159.4270179 4.98347414 154.55001868 4.94287777 149.67173266 C4.90774482 144.5686934 4.91478573 139.46569964 4.9163208 134.36256409 C4.91257477 125.79362485 4.87784665 117.22525227 4.82324219 108.65649414 C4.76031998 98.74577879 4.73925044 88.83568384 4.7421844 78.92478317 C4.7446248 69.39447564 4.72421115 59.86437039 4.69101715 50.33412361 C4.67688549 46.27638229 4.66956414 42.21871254 4.66744232 38.1609478 C4.66342746 33.38454314 4.63903353 28.60866042 4.59877777 23.83242798 C4.58708367 22.0780615 4.58217515 20.32363496 4.58448792 18.56923103 C4.58644818 16.17718395 4.56386071 13.78660306 4.53485107 11.39476013 C4.54104548 10.69777856 4.54723989 10.00079698 4.55362201 9.28269476 C4.48411668 5.82115487 4.20479828 4.24797959 1.96657181 1.53782749 C1.31760311 1.03034442 0.66863441 0.52286135 0 0 Z " fill="#FEEFE5" transform="translate(169,33)"/>
<path d="M0 0 C3.0831351 1.19899698 6.06279492 2.47700477 9 4 C9.29586132 9.02964252 9.0496128 11.9338496 6 16 C5.5875 16.61875 5.175 17.2375 4.75 17.875 C3 19 3 19 -0.4375 18.875 C-6.14516129 17.47311828 -6.14516129 17.47311828 -8 15 C-8.42692598 11.75663695 -8.10890247 9.07563515 -7 6 C-4.93036051 3.57556517 -2.64695021 1.76232978 0 0 Z " fill="#FAAA51" transform="translate(107,170)"/>
<path d="M0 0 C0.66 0 1.32 0 2 0 C2 60.39 2 120.78 2 183 C-1.465 184.98 -1.465 184.98 -5 187 C-4.25 185.0625 -4.25 185.0625 -3 183 C-1.68 182.67 -0.36 182.34 1 182 C0.67 121.94 0.34 61.88 0 0 Z " fill="#A3573F" transform="translate(172,37)"/>
<path d="M0 0 C2.475 0.99 2.475 0.99 5 2 C4.21625 2.7425 3.4325 3.485 2.625 4.25 C-1.61992286 8.69706205 -2.29576135 11.89659839 -3 18 C-4.65 17.01 -6.3 16.02 -8 15 C-8.06414266 10.8765433 -8.11500632 7.32675031 -5.375 4.06640625 C-3.6365041 2.60480788 -1.88995235 1.25832337 0 0 Z " fill="#DF8E4B" transform="translate(107,170)"/>
<path d="M0 0 C0.66 0.33 1.32 0.66 2 1 C0.8125 3 0.8125 3 -1 5 C-2.65 5 -4.3 5 -6 5 C-6 21.5 -6 38 -6 55 C-5.34 55.33 -4.68 55.66 -4 56 C-5.485 56.495 -5.485 56.495 -7 57 C-7 39.51 -7 22.02 -7 4 C-4.69 2.68 -2.38 1.36 0 0 Z " fill="#D6CCCA" transform="translate(117,104)"/>
<path d="M0 0 C0.66 0.33 1.32 0.66 2 1 C-1.94155474 5.55742267 -5.23948767 7.20574206 -11 9 C-11.66 9 -12.32 9 -13 9 C-13 9.66 -13 10.32 -13 11 C-16.27037599 14.27037599 -19.5130254 14.56856013 -24 15 C-20.2240546 10.8573012 -15.25714953 8.49858094 -10.4375 5.75 C-9.46619141 5.1828125 -8.49488281 4.615625 -7.49414062 4.03125 C-6.56666016 3.50015625 -5.63917969 2.9690625 -4.68359375 2.421875 C-3.83337646 1.93299805 -2.98315918 1.44412109 -2.10717773 0.94042969 C-1.41180908 0.63008789 -0.71644043 0.31974609 0 0 Z " fill="#D98D62" transform="translate(97,62)"/>
<path d="M0 0 C0.66 0.33 1.32 0.66 2 1 C0.90241493 1.84198307 -0.20335317 2.67330671 -1.3125 3.5 C-1.92738281 3.9640625 -2.54226562 4.428125 -3.17578125 4.90625 C-5 6 -5 6 -8 6 C-8.33 6.99 -8.66 7.98 -9 9 C-11.21484375 10.3515625 -11.21484375 10.3515625 -13.9375 11.625 C-14.83339844 12.05039062 -15.72929687 12.47578125 -16.65234375 12.9140625 C-17.42707031 13.27242187 -18.20179688 13.63078125 -19 14 C-19.99 14.495 -19.99 14.495 -21 15 C-21.66 14.34 -22.32 13.68 -23 13 C-19.21571557 10.79953501 -15.42146632 8.61686959 -11.625 6.4375 C-10.54476562 5.80908203 -9.46453125 5.18066406 -8.3515625 4.53320312 C-7.3203125 3.94345703 -6.2890625 3.35371094 -5.2265625 2.74609375 C-4.27346191 2.19622803 -3.32036133 1.6463623 -2.33837891 1.07983398 C-1.18088135 0.54531616 -1.18088135 0.54531616 0 0 Z " fill="#E18D63" transform="translate(156,28)"/>
<path d="M0 0 C-3.80249462 2.30722109 -7.61109273 4.60389373 -11.42578125 6.89086914 C-12.72342379 7.67085243 -14.01933365 8.45372576 -15.31347656 9.23950195 C-17.17068044 10.36648057 -19.03380516 11.48302313 -20.8984375 12.59765625 C-22.01911621 13.27320557 -23.13979492 13.94875488 -24.29443359 14.64477539 C-25.18727051 15.09199951 -26.08010742 15.53922363 -27 16 C-27.66 15.67 -28.32 15.34 -29 15 C-26.00608773 11.75659504 -24.22768531 10.01527902 -20 9 C-17.90077808 7.77108889 -15.91566969 6.42270902 -13.90234375 5.05859375 C-12 4 -12 4 -9 4 C-9 3.34 -9 2.68 -9 2 C-3.375 -1.125 -3.375 -1.125 0 0 Z " fill="#FDF0E3" transform="translate(152,31)"/>
<path d="M0 0 C2.29378439 0.25166913 4.53938803 0.58652439 6.8046875 1.0234375 C-2.62388393 9.0234375 -2.62388393 9.0234375 -7.1953125 9.0234375 C-3.95208535 0.04219308 -3.95208535 0.04219308 0 0 Z " fill="#C46241" transform="translate(127.1953125,233.9765625)"/>
<path d="M0 0 C0.99 0.33 1.98 0.66 3 1 C-1.00648656 4.37102834 -5.21589658 7.11912879 -9.6875 9.8125 C-10.70166992 10.44188477 -10.70166992 10.44188477 -11.73632812 11.08398438 C-13.45327206 12.12098434 -15.22352139 13.0686627 -17 14 C-17.66 13.67 -18.32 13.34 -19 13 C-16.47043472 9.9083091 -13.77545388 9.09068668 -10 8 C-10 7.34 -10 6.68 -10 6 C-9.44570312 5.73445312 -8.89140625 5.46890625 -8.3203125 5.1953125 C-7.59585938 4.84210938 -6.87140625 4.48890625 -6.125 4.125 C-5.40570313 3.77695313 -4.68640625 3.42890625 -3.9453125 3.0703125 C-1.84864981 2.03442457 -1.84864981 2.03442457 0 0 Z " fill="#B86445" transform="translate(153,221)"/>
<path d="M0 0 C1.32 0 2.64 0 4 0 C4 0.66 4 1.32 4 2 C7.04386724 2.08226668 9.07175348 1.97608217 12 1 C12 2.65 12 4.3 12 6 C12.66 6.33 13.32 6.66 14 7 C10.2397015 6.41892368 7.46964968 5.34800504 4.1875 3.4375 C3.39730469 2.98246094 2.60710937 2.52742188 1.79296875 2.05859375 C1.20128906 1.70925781 0.60960938 1.35992187 0 1 C0 0.67 0 0.34 0 0 Z " fill="#BE6443" transform="translate(67,265)"/>
<path d="M0 0 C0 0.66 0 1.32 0 2 C-0.66 2 -1.32 2 -2 2 C-2.33 2.99 -2.66 3.98 -3 5 C-4.99609375 5.984375 -4.99609375 5.984375 -7.4375 6.75 C-8.24058594 7.01296875 -9.04367188 7.2759375 -9.87109375 7.546875 C-12 8 -12 8 -14 7 C-12.04480616 5.82807953 -10.0857461 4.6626071 -8.125 3.5 C-7.03445312 2.8503125 -5.94390625 2.200625 -4.8203125 1.53125 C-2 0 -2 0 0 0 Z " fill="#E28F62" transform="translate(127,46)"/>
<path d="M0 0 C-2.2863012 1.36402043 -4.57821749 2.71634274 -6.875 4.0625 C-7.85146484 4.64741211 -7.85146484 4.64741211 -8.84765625 5.24414062 C-10.53065725 6.22444533 -12.26296199 7.11898432 -14 8 C-14.66 7.67 -15.32 7.34 -16 7 C-14 4 -14 4 -10.875 3.3125 C-9.92625 3.209375 -8.9775 3.10625 -8 3 C-7.67 2.01 -7.34 1.02 -7 0 C-4.05610218 -1.17755913 -3.10046087 -1.03348696 0 0 Z " fill="#BD6446" transform="translate(120,244)"/>
<path d="M0 0 C0.99 0.33 1.98 0.66 3 1 C3 1.66 3 2.32 3 3 C1.3203125 4.2890625 1.3203125 4.2890625 -0.875 5.625 C-1.95394531 6.29402344 -1.95394531 6.29402344 -3.0546875 6.9765625 C-5 8 -5 8 -7 8 C-7 7.34 -7 6.68 -7 6 C-7.66 6 -8.32 6 -9 6 C-9 5.34 -9 4.68 -9 4 C-6.03 4.495 -6.03 4.495 -3 5 C-3 4.34 -3 3.68 -3 3 C-2.01 3 -1.02 3 0 3 C0 2.01 0 1.02 0 0 Z " fill="#D5D9D8" transform="translate(136,142)"/>
<path d="M0 0 C-3.96 1.98 -7.92 3.96 -12 6 C-12 4.68 -12 3.36 -12 2 C-10.75579353 1.4654744 -9.50429064 0.94791389 -8.25 0.4375 C-7.55390625 0.14746094 -6.8578125 -0.14257812 -6.140625 -0.44140625 C-4 -1 -4 -1 0 0 Z " fill="#C56A4B" transform="translate(133,96)"/>
<path d="M0 0 C0 2 0 2 -1 3.5625 C-4.12434729 5.80812461 -7.19781708 5.68834566 -11 6 C-3.8 0 -3.8 0 0 0 Z " fill="#BDB0AD" transform="translate(135,95)"/>
<path d="M0 0 C0.66 0 1.32 0 2 0 C2.33 0.66 2.66 1.32 3 2 C3.99 2.33 4.98 2.66 6 3 C1.05 5.475 1.05 5.475 -4 8 C-2 4 -2 4 0 2 C0 1.34 0 0.68 0 0 Z " fill="#FDF0E8" transform="translate(93,59)"/>
<path d="M0 0 C3.63 1.98 7.26 3.96 11 6 C10.34 6.66 9.68 7.32 9 8 C6.03 6.35 3.06 4.7 0 3 C0 2.01 0 1.02 0 0 Z " fill="#D98C63" transform="translate(159,28)"/>
<path d="M0 0 C0.66 0.33 1.32 0.66 2 1 C-2.66804118 4.62011357 -6.2392897 6.70677932 -12 8 C-9.72254211 5.51017465 -7.37664762 3.89631003 -4.4375 2.25 C-3.65246094 1.80140625 -2.86742187 1.3528125 -2.05859375 0.890625 C-1.37925781 0.59671875 -0.69992188 0.3028125 0 0 Z " fill="#D48963" transform="translate(156,28)"/>
<path d="M0 0 C1.65 0.33 3.3 0.66 5 1 C5 1.99 5 2.98 5 4 C3.02 4.33 1.04 4.66 -1 5 C-0.67 3.35 -0.34 1.7 0 0 Z " fill="#AC5532" transform="translate(80,266)"/>
<path d="M0 0 C0 0.66 0 1.32 0 2 C-7.28571429 6.42857143 -7.28571429 6.42857143 -12 7 C-9.20232475 3.70861735 -4.40323273 0 0 0 Z " fill="#C2735B" transform="translate(136,147)"/>
<path d="M0 0 C7.14893617 -0.56737589 7.14893617 -0.56737589 11 2 C11 2.66 11 3.32 11 4 C10.34 3.649375 9.68 3.29875 9 2.9375 C4.9486909 1.67146591 2.16625445 2.29385518 -2 3 C-1.34 2.01 -0.68 1.02 0 0 Z " fill="#FEF1E3" transform="translate(154,27)"/>
<path d="M0 0 C1.32 0.33 2.64 0.66 4 1 C-0.95 3.475 -0.95 3.475 -6 6 C-5.34 4.35 -4.68 2.7 -4 1 C-2.68 1.33 -1.36 1.66 0 2 C0 1.34 0 0.68 0 0 Z " fill="#FEF2E8" transform="translate(112,51)"/>
<path d="M0 0 C-1.75 3.875 -1.75 3.875 -4 5 C-5.13350534 7.01669827 -5.13350534 7.01669827 -6 9 C-6.25 6.1875 -6.25 6.1875 -6 3 C-3.95959224 0.95959224 -2.91674756 0 0 0 Z " fill="#FEEDE3" transform="translate(101,255)"/>
<path d="M0 0 C-1 3 -1 3 -3.875 4.75 C-7 6 -7 6 -10 5 C-8.71186658 4.16121545 -7.41936744 3.32913217 -6.125 2.5 C-5.40570313 2.0359375 -4.68640625 1.571875 -3.9453125 1.09375 C-2 0 -2 0 0 0 Z " fill="#FEEFE5" transform="translate(144,230)"/>
<path d="M0 0 C-5.17578125 3.22265625 -5.17578125 3.22265625 -7 4 C-7.99 3.67 -8.98 3.34 -10 3 C-4.375 -1.3125 -4.375 -1.3125 0 0 Z " fill="#D8D5D3" transform="translate(129,151)"/>
<path d="M0 0 C0.99 0.33 1.98 0.66 3 1 C2.67 1.66 2.34 2.32 2 3 C1.01 3.33 0.02 3.66 -1 4 C-1.66 4.66 -2.32 5.32 -3 6 C-3 4.68 -3 3.36 -3 2 C-2.01 1.34 -1.02 0.68 0 0 Z " fill="#E28F65" transform="translate(69,78)"/>
</svg>
